<svg width="48" height="48" viewBox="0 0 48 48" fill="none" xmlns="http://www.w3.org/2000/svg">
<path d="M41.1374 9.13477H38.8574V25.1398H41.1374V9.13477Z" fill="currentColor"/>
<path d="M38.8571 25.1406H36.5771V29.7156H38.8571V25.1406Z" fill="currentColor"/>
<path d="M38.8571 4.57422H36.5771V9.13422H38.8571V4.57422Z" fill="currentColor"/>
<path d="M36.5772 29.7148H34.2822V31.9948H36.5772V29.7148Z" fill="currentColor"/>
<path d="M34.2824 31.9941H32.0024V34.2891H34.2824V31.9941Z" fill="currentColor"/>
<path d="M36.5774 2.2793H32.0024V4.5743H36.5774V2.2793Z" fill="currentColor"/>
<path d="M32.0025 11.4297H29.7075V27.4197H32.0025V11.4297Z" fill="currentColor"/>
<path d="M29.7071 27.4199H27.4271V34.2899H20.5721V27.4199H18.2771V34.2899H15.9971V36.5699H18.2771V41.1449H15.9971V45.7199H18.2771V47.9999H29.7071V45.7199H32.0021V41.1449H29.7071V36.5699H32.0021V34.2899H29.7071V27.4199ZM27.4271 41.1449H20.5721V36.5699H27.4271V41.1449Z" fill="currentColor"/>
<path d="M18.2771 11.43H20.5721V2.28H27.4271V11.43H29.7071V2.28H32.0021V0H15.9971V2.28H18.2771V11.43Z" fill="currentColor"/>
<path d="M18.2771 11.4297H15.9971V27.4197H18.2771V11.4297Z" fill="currentColor"/>
<path d="M15.9973 31.9941H13.7173V34.2891H15.9973V31.9941Z" fill="currentColor"/>
<path d="M15.9974 2.2793H11.4224V4.5743H15.9974V2.2793Z" fill="currentColor"/>
<path d="M13.7174 29.7148H11.4224V31.9948H13.7174V29.7148Z" fill="currentColor"/>
<path d="M11.4221 25.1406H9.14209V29.7156H11.4221V25.1406Z" fill="currentColor"/>
<path d="M11.4221 4.57422H9.14209V9.13422H11.4221V4.57422Z" fill="currentColor"/>
<path d="M9.1423 9.13477H6.8623V25.1398H9.1423V9.13477Z" fill="currentColor"/>
</svg>
