<svg width="48" height="48" viewBox="0 0 48 48" fill="none" xmlns="http://www.w3.org/2000/svg">
<g clip-path="url(#clip0_818_21602)">
<path d="M44.5728 11.4375H42.2778V15.9975H44.5728V11.4375Z" fill="black"/>
<path d="M42.2776 9.14258H39.9976V11.4376H42.2776V9.14258Z" fill="black"/>
<path d="M39.9976 6.86133H37.7026V9.14133H39.9976V6.86133Z" fill="black"/>
<path d="M28.5676 34.2821H33.1426V32.0021H35.4226V6.86211H37.7026V4.56711H35.4226V2.28711H33.1426V25.1471H28.5676V27.4271H26.2876V32.0021H28.5676V34.2821Z" fill="black"/>
<path d="M21.713 22.8516H19.418V27.4266H21.713V22.8516Z" fill="black"/>
<path d="M19.4177 20.5723H17.1377V22.8523H19.4177V20.5723Z" fill="black"/>
<path d="M17.1379 18.293H14.8579V20.573H17.1379V18.293Z" fill="black"/>
<path d="M5.70773 45.7118H10.2827V43.4318H12.5627V18.2918H14.8577V15.9968H12.5627V13.7168H10.2827V36.5768H5.70773V38.8568H3.42773V43.4318H5.70773V45.7118Z" fill="black"/>
<path d="M44.5728 11.4375H42.2778V15.9975H44.5728V11.4375Z" fill="currentColor"/>
<path d="M42.2776 9.14258H39.9976V11.4376H42.2776V9.14258Z" fill="currentColor"/>
<path d="M39.9976 6.86133H37.7026V9.14133H39.9976V6.86133Z" fill="currentColor"/>
<path d="M28.5676 34.2821H33.1426V32.0021H35.4226V6.86211H37.7026V4.56711H35.4226V2.28711H33.1426V25.1471H28.5676V27.4271H26.2876V32.0021H28.5676V34.2821Z" fill="currentColor"/>
<path d="M21.713 22.8516H19.418V27.4266H21.713V22.8516Z" fill="currentColor"/>
<path d="M19.4177 20.5723H17.1377V22.8523H19.4177V20.5723Z" fill="currentColor"/>
<path d="M17.1379 18.293H14.8579V20.573H17.1379V18.293Z" fill="currentColor"/>
<path d="M5.70773 45.7118H10.2827V43.4318H12.5627V18.2918H14.8577V15.9968H12.5627V13.7168H10.2827V36.5768H5.70773V38.8568H3.42773V43.4318H5.70773V45.7118Z" fill="currentColor"/>
</g>
<defs>
<clipPath id="clip0_818_21602">
<rect width="48" height="48" fill="currentColor"/>
</clipPath>
</defs>
</svg>
