<svg width="44" height="44" viewBox="0 0 44 44" fill="none" xmlns="http://www.w3.org/2000/svg">
<rect x="4.6377" y="27.1836" width="2" height="2" transform="rotate(-14.9307 4.6377 27.1836)" fill="currentColor"/>
<rect x="5.15283" y="29.1152" width="2" height="2" transform="rotate(-14.9307 5.15283 29.1152)" fill="currentColor"/>
<path d="M6.18329 30.9104L9.13334 30.1238L9.64864 32.0562L6.6986 32.8429L6.18329 30.9104Z" fill="currentColor"/>
<rect x="8.11621" y="32.4648" width="2" height="2" transform="rotate(-14.9307 8.11621 32.4648)" fill="currentColor"/>
<rect x="10.0483" y="31.9492" width="2" height="2" transform="rotate(-14.9307 10.0483 31.9492)" fill="currentColor"/>
<rect x="15.3306" y="28.4727" width="2" height="2" transform="rotate(-14.9307 15.3306 28.4727)" fill="currentColor"/>
<rect x="11.981" y="31.4355" width="2" height="2" transform="rotate(-14.9307 11.981 31.4355)" fill="currentColor"/>
<rect x="13.3984" y="28.9863" width="2" height="2" transform="rotate(-14.9307 13.3984 28.9863)" fill="currentColor"/>
<rect x="17.2632" y="27.957" width="2" height="2" transform="rotate(-14.9307 17.2632 27.957)" fill="currentColor"/>
<rect x="18.6802" y="25.5078" width="2" height="2" transform="rotate(-14.9307 18.6802 25.5078)" fill="currentColor"/>
<rect x="20.6128" y="24.9941" width="2" height="2" transform="rotate(-14.9307 20.6128 24.9941)" fill="currentColor"/>
<rect x="25.3799" y="19.582" width="2" height="2" transform="rotate(-14.9307 25.3799 19.582)" fill="currentColor"/>
<rect x="22.0298" y="22.5449" width="2" height="2" transform="rotate(-14.9307 22.0298 22.5449)" fill="currentColor"/>
<rect x="23.9624" y="22.0312" width="2" height="2" transform="rotate(-14.9307 23.9624 22.0312)" fill="currentColor"/>
<rect x="27.312" y="19.0664" width="2" height="2" transform="rotate(-14.9307 27.312 19.0664)" fill="currentColor"/>
<rect x="21.3857" y="12.3672" width="2" height="2" transform="rotate(-14.9307 21.3857 12.3672)" fill="currentColor"/>
<rect x="21.9014" y="14.3008" width="2" height="2" transform="rotate(-14.9307 21.9014 14.3008)" fill="currentColor"/>
<rect x="24.3491" y="15.7168" width="2" height="2" transform="rotate(-14.9307 24.3491 15.7168)" fill="currentColor"/>
<rect x="26.7969" y="17.1348" width="2" height="2" transform="rotate(-14.9307 26.7969 17.1348)" fill="currentColor"/>
<rect x="18.938" y="10.9512" width="2" height="2" transform="rotate(-14.9307 18.938 10.9512)" fill="currentColor"/>
<rect x="17.521" y="13.3984" width="2" height="2" transform="rotate(-14.9307 17.521 13.3984)" fill="currentColor"/>
<rect x="16.104" y="15.8457" width="2" height="2" transform="rotate(-14.9307 16.104 15.8457)" fill="currentColor"/>
<rect x="12.7544" y="18.8086" width="2" height="2" transform="rotate(-14.9307 12.7544 18.8086)" fill="currentColor"/>
<rect x="11.3369" y="21.2578" width="2" height="2" transform="rotate(-14.9307 11.3369 21.2578)" fill="currentColor"/>
<rect x="7.9873" y="24.2207" width="2" height="2" transform="rotate(-14.9307 7.9873 24.2207)" fill="currentColor"/>
<rect x="6.57031" y="26.668" width="2" height="2" transform="rotate(-14.9307 6.57031 26.668)" fill="currentColor"/>
<rect x="9.4043" y="21.7715" width="2" height="2" transform="rotate(-14.9307 9.4043 21.7715)" fill="currentColor"/>
<rect x="14.1714" y="16.3613" width="2" height="2" transform="rotate(-14.9307 14.1714 16.3613)" fill="currentColor"/>
<rect x="30.9194" y="1.54688" width="2" height="2" transform="rotate(-14.9307 30.9194 1.54688)" fill="currentColor"/>
<rect x="33.3672" y="2.96289" width="2" height="2" transform="rotate(-14.9307 33.3672 2.96289)" fill="currentColor"/>
<rect x="28.9873" y="2.06055" width="2" height="2" transform="rotate(-14.9307 28.9873 2.06055)" fill="currentColor"/>
<rect x="33.8828" y="4.89648" width="2" height="2" transform="rotate(-14.9307 33.8828 4.89648)" fill="currentColor"/>
<rect x="23.1899" y="3.60742" width="2" height="2" transform="rotate(-14.9307 23.1899 3.60742)" fill="currentColor"/>
<rect x="25.1221" y="3.0918" width="2" height="2" transform="rotate(-14.9307 25.1221 3.0918)" fill="currentColor"/>
<rect x="27.0547" y="2.57617" width="2" height="2" transform="rotate(-14.9307 27.0547 2.57617)" fill="currentColor"/>
<rect x="22.417" y="5.30664" width="2" height="2" transform="rotate(-14.9307 22.417 5.30664)" fill="currentColor"/>
<rect x="21" y="7.75391" width="2" height="2" transform="rotate(-14.9307 21 7.75391)" fill="currentColor"/>
<rect x="20.8706" y="10.4355" width="2" height="2" transform="rotate(-14.9307 20.8706 10.4355)" fill="currentColor"/>
<rect x="23.3184" y="11.8535" width="2" height="2" transform="rotate(-14.9307 23.3184 11.8535)" fill="currentColor"/>
<rect x="23.834" y="13.7852" width="2" height="2" transform="rotate(-14.9307 23.834 13.7852)" fill="currentColor"/>
<rect x="26.2817" y="15.2031" width="2" height="2" transform="rotate(-14.9307 26.2817 15.2031)" fill="currentColor"/>
<rect x="28.7295" y="16.6191" width="2" height="2" transform="rotate(-14.9307 28.7295 16.6191)" fill="currentColor"/>
<rect x="31.1772" y="18.0371" width="2" height="2" transform="rotate(-14.9307 31.1772 18.0371)" fill="currentColor"/>
<rect x="32.5942" y="15.5879" width="2" height="2" transform="rotate(-14.9307 32.5942 15.5879)" fill="currentColor"/>
<rect x="34.5269" y="15.0742" width="2" height="2" transform="rotate(-14.9307 34.5269 15.0742)" fill="currentColor"/>
<rect x="37.3608" y="10.1777" width="2" height="2" transform="rotate(-14.9307 37.3608 10.1777)" fill="currentColor"/>
<rect x="35.9438" y="12.625" width="2" height="2" transform="rotate(-14.9307 35.9438 12.625)" fill="currentColor"/>
<rect x="36.3306" y="6.3125" width="2" height="2" transform="rotate(-14.9307 36.3306 6.3125)" fill="currentColor"/>
<rect x="36.8457" y="8.24609" width="2" height="2" transform="rotate(-14.9307 36.8457 8.24609)" fill="currentColor"/>
<rect x="6" y="31.791" width="2" height="2" fill="currentColor"/>
<rect x="5" y="31.791" width="2" height="2" fill="currentColor"/>
<rect x="5" y="33.791" width="2" height="2" fill="currentColor"/>
<rect x="4" y="34.791" width="2" height="2" fill="currentColor"/>
<rect x="8" y="35.791" width="2" height="2" fill="currentColor"/>
<rect x="16" y="33.791" width="2" height="2" fill="currentColor"/>
<rect x="20" y="31.791" width="2" height="2" fill="currentColor"/>
<rect x="24" y="35.791" width="2" height="2" fill="currentColor"/>
<rect x="24" y="37.791" width="2" height="2" fill="currentColor"/>
<rect x="26" y="39.791" width="2" height="2" fill="currentColor"/>
<rect x="36" y="35.791" width="2" height="2" fill="currentColor"/>
<rect x="34" y="37.791" width="2" height="2" fill="currentColor"/>
<rect x="32" y="39.791" width="2" height="2" fill="currentColor"/>
<rect x="38" y="35.791" width="2" height="2" fill="currentColor"/>
<rect x="38" y="37.791" width="2" height="2" fill="currentColor"/>
<rect x="32" y="41.791" width="2" height="2" fill="currentColor"/>
<rect x="30" y="41.791" width="2" height="2" fill="currentColor"/>
<rect x="34" y="39.791" width="2" height="2" fill="currentColor"/>
<rect x="28" y="41.791" width="2" height="2" fill="currentColor"/>
<rect x="24" y="39.791" width="2" height="2" fill="currentColor"/>
<rect x="26" y="41.791" width="2" height="2" fill="currentColor"/>
<rect x="22" y="35.791" width="2" height="2" fill="currentColor"/>
<rect x="22" y="33.791" width="2" height="2" fill="currentColor"/>
<rect x="20" y="33.791" width="2" height="2" fill="currentColor"/>
<rect x="18" y="33.791" width="2" height="2" fill="currentColor"/>
<rect x="16" y="35.791" width="2" height="2" fill="currentColor"/>
<rect x="14" y="35.791" width="2" height="2" fill="currentColor"/>
<rect x="12" y="37.791" width="2" height="2" fill="currentColor"/>
<rect x="8" y="37.791" width="2" height="2" fill="currentColor"/>
<rect x="10" y="37.791" width="2" height="2" fill="currentColor"/>
<rect x="14" y="37.791" width="2" height="2" fill="currentColor"/>
<rect x="6" y="35.791" width="2" height="2" fill="currentColor"/>
</svg>
