<svg  viewBox="0 0 36 36" fill="none" xmlns="http://www.w3.org/2000/svg">
<rect x="0.952148" y="0.755859" width="36" height="36" fill="#57FF57"/>
<path fill-rule="evenodd" clip-rule="evenodd" d="M10.9521 9.75586H20.9521V11.7559H10.9521V25.7559H26.9521V17.7559H28.9521V25.7559V27.7559H26.9521H10.9521H8.95215V25.7559V11.7559V9.75586H10.9521ZM20.9521 15.7559H18.9521V17.7559H16.9521V19.7559H14.9521V21.7559H12.9521V23.7559H14.9521V21.7559H16.9521V19.7559H18.9521V17.7559H20.9521V19.7559H22.9521V21.7559H24.9521V19.7559H22.9521V17.7559H20.9521V15.7559ZM14.9521 13.7559H12.9521V15.7559H14.9521V13.7559ZM24.9521 9.75586H26.9521V11.7559H28.9521V13.7559H26.9521V15.7559H24.9521V13.7559H22.9521V11.7559H24.9521V9.75586Z" fill="black"/>
</svg>
