<svg width="44" height="44" viewBox="0 0 44 44" fill="none" xmlns="http://www.w3.org/2000/svg">
<path d="M43.1236 8.2168H41.0752V34.9139H43.1236V8.2168Z" fill="currentColor"/>
<path d="M34.9193 34.9117V32.8633H32.8574V34.9117H10.2707V32.8633H8.22226V34.9117H2.06348V36.9602H41.0781V34.9117H34.9193Z" fill="currentColor"/>
<path d="M39.0287 30.8047H36.9668V32.8666H39.0287V30.8047Z" fill="currentColor"/>
<path d="M39.0287 10.2676H36.9668V12.3295H39.0287V10.2676Z" fill="currentColor"/>
<path d="M36.9668 18.4851H34.9183V16.4434H8.22129V18.4918H6.17285V22.6021H8.22129V24.6506H34.9183V22.6021H36.9668V18.4851ZM14.3801 22.5954H10.2697V18.4851H14.3801V22.5954ZM24.6492 20.5335H18.4904V18.4851H24.6492V20.5335ZM32.8564 22.5954H28.7596V18.4851H32.8564V22.5954Z" fill="currentColor"/>
<path d="M32.8575 30.8047H30.8091V32.8666H32.8575V30.8047Z" fill="currentColor"/>
<path d="M30.8064 28.7559H12.3301V30.8043H30.8064V28.7559Z" fill="currentColor"/>
<path d="M30.8064 10.2676H12.3301V12.3295H30.8064V10.2676Z" fill="currentColor"/>
<path d="M12.3334 30.8047H10.2715V32.8666H12.3334V30.8047Z" fill="currentColor"/>
<path d="M6.17519 30.8047H4.11328V32.8666H6.17519V30.8047Z" fill="currentColor"/>
<path d="M6.17519 10.2676H4.11328V12.3295H6.17519V10.2676Z" fill="currentColor"/>
<path d="M41.0781 6.16797H2.06348V8.21641H41.0781V6.16797Z" fill="currentColor"/>
<path d="M2.06191 8.2168H0V34.9139H2.06191V8.2168Z" fill="currentColor"/>
</svg>
