<svg width="48" height="45" viewBox="0 0 48 45" fill="none" xmlns="http://www.w3.org/2000/svg">
<rect x="46.1885" y="1.81055" width="1.81132" height="1.81132" fill="currentColor"/>
<rect x="40.7549" width="1.81132" height="1.81132" fill="currentColor"/>
<rect x="38.9434" width="1.81132" height="1.81132" fill="currentColor"/>
<rect x="42.5659" width="1.81132" height="1.81132" fill="currentColor"/>
<rect x="44.3774" width="1.81132" height="1.81132" fill="currentColor"/>
<rect x="37.1323" width="1.81132" height="1.81132" fill="currentColor"/>
<rect x="35.3208" width="1.81132" height="1.81132" fill="currentColor"/>
<rect x="31.6982" y="1.81055" width="1.81132" height="1.81132" fill="currentColor"/>
<rect x="29.8867" y="3.62305" width="1.81132" height="1.81132" fill="currentColor"/>
<rect x="33.5093" y="1.81055" width="1.81132" height="1.81132" fill="currentColor"/>
<rect x="28.0752" y="3.62305" width="1.81132" height="1.81132" fill="currentColor"/>
<rect x="26.2642" y="3.62305" width="1.81132" height="1.81132" fill="currentColor"/>
<rect x="26.2642" y="5.43359" width="1.81132" height="1.81132" fill="currentColor"/>
<rect x="26.2642" y="7.24609" width="1.81132" height="1.81132" fill="currentColor"/>
<rect x="24.4531" y="7.24609" width="1.81132" height="1.81132" fill="currentColor"/>
<rect x="24.4531" y="9.05664" width="1.81132" height="1.81132" fill="currentColor"/>
<rect x="26.2642" y="10.8672" width="1.81132" height="1.81132" fill="currentColor"/>
<rect x="26.2642" y="12.6797" width="1.81132" height="1.81132" fill="currentColor"/>
<rect x="24.4531" y="12.6797" width="1.81132" height="1.81132" fill="currentColor"/>
<rect x="24.4531" y="14.4902" width="1.81132" height="1.81132" fill="currentColor"/>
<rect x="26.2642" y="16.3027" width="1.81132" height="1.81132" fill="currentColor"/>
<rect x="26.2642" y="18.1133" width="1.81132" height="1.81132" fill="currentColor"/>
<rect x="26.2642" y="19.9238" width="1.81132" height="1.81132" fill="currentColor"/>
<rect x="26.2642" y="21.7363" width="1.81132" height="1.81132" fill="currentColor"/>
<rect x="26.2642" y="23.5469" width="1.81132" height="1.81132" fill="currentColor"/>
<rect x="26.2642" y="25.3594" width="1.81132" height="1.81132" fill="currentColor"/>
<rect x="26.2642" y="27.1699" width="1.81132" height="1.81132" fill="currentColor"/>
<rect x="24.4531" y="27.1699" width="1.81132" height="1.81132" fill="currentColor"/>
<rect x="18.1133" y="28.0762" width="1.81132" height="1.81132" fill="currentColor"/>
<rect x="24.4531" y="28.0762" width="1.81132" height="1.81132" fill="currentColor"/>
<rect x="19.9248" y="28.9805" width="4.5283" height="1.81132" fill="currentColor"/>
<rect x="18.1133" y="27.1699" width="1.81132" height="1.81132" fill="currentColor"/>
<rect x="16.3018" y="25.3594" width="1.81132" height="1.81132" fill="currentColor"/>
<rect x="16.3018" y="21.7363" width="1.81132" height="1.81132" fill="currentColor"/>
<rect x="16.3018" y="23.5469" width="1.81132" height="1.81132" fill="currentColor"/>
<rect x="16.3018" y="19.9238" width="1.81132" height="1.81132" fill="currentColor"/>
<rect x="18.1133" y="18.1133" width="1.81132" height="1.81132" fill="currentColor"/>
<rect x="16.3018" y="16.3027" width="1.81132" height="1.81132" fill="currentColor"/>
<rect x="10.8677" y="18.1133" width="1.81132" height="1.81132" fill="currentColor"/>
<rect x="7.24512" y="19.9238" width="1.81132" height="1.81132" fill="currentColor"/>
<rect x="1.81152" y="21.7363" width="1.81132" height="1.81132" fill="currentColor"/>
<rect x="3.62256" y="21.7363" width="1.81132" height="1.81132" fill="currentColor"/>
<rect x="5.43408" y="19.9238" width="1.81132" height="1.81132" fill="currentColor"/>
<rect x="9.05664" y="18.1133" width="1.81132" height="1.81132" fill="currentColor"/>
<rect x="12.6792" y="18.1133" width="1.81132" height="1.81132" fill="currentColor"/>
<rect x="14.4907" y="16.3027" width="1.81132" height="1.81132" fill="currentColor"/>
<rect y="23.5469" width="1.81132" height="1.81132" fill="currentColor"/>
<rect x="1.81152" y="25.3594" width="1.81132" height="1.81132" fill="currentColor"/>
<rect x="3.62256" y="25.3594" width="1.81132" height="1.81132" fill="currentColor"/>
<rect x="3.62256" y="27.1699" width="1.81132" height="1.81132" fill="currentColor"/>
<rect x="5.43408" y="28.9805" width="1.81132" height="1.81132" fill="currentColor"/>
<rect x="5.43408" y="30.793" width="1.81132" height="1.81132" fill="currentColor"/>
<rect x="7.24512" y="32.6035" width="1.81132" height="1.81132" fill="currentColor"/>
<rect x="7.24512" y="34.416" width="1.81132" height="1.81132" fill="currentColor"/>
<rect x="7.24512" y="36.2266" width="1.81132" height="1.81132" fill="currentColor"/>
<rect x="9.05664" y="36.2266" width="1.81132" height="1.81132" fill="currentColor"/>
<rect x="9.05664" y="38.0371" width="1.81132" height="1.81132" fill="currentColor"/>
<rect x="10.8677" y="38.0371" width="1.81132" height="1.81132" fill="currentColor"/>
<rect x="12.6792" y="39.8496" width="1.81132" height="1.81132" fill="currentColor"/>
<rect x="14.4907" y="40.7539" width="4.5283" height="1.81132" fill="currentColor"/>
<rect x="24.4531" y="40.7539" width="1.81132" height="1.81132" fill="currentColor"/>
<rect x="19.019" y="42.5664" width="1.81132" height="1.81132" fill="currentColor"/>
<rect x="20.8301" y="42.5664" width="1.81132" height="1.81132" fill="currentColor"/>
<rect x="22.6416" y="42.5664" width="1.81132" height="1.81132" fill="currentColor"/>
<rect x="26.2642" y="40.7539" width="1.81132" height="1.81132" fill="currentColor"/>
<rect x="30.7925" y="34.416" width="1.81132" height="1.81132" fill="currentColor"/>
<rect x="29.8867" y="36.2266" width="1.81132" height="1.81132" fill="currentColor"/>
<rect x="29.8867" y="38.0371" width="1.81132" height="1.81132" fill="currentColor"/>
<rect x="28.0752" y="38.0371" width="1.81132" height="1.81132" fill="currentColor"/>
<rect x="28.0752" y="39.8496" width="1.81132" height="1.81132" fill="currentColor"/>
<rect x="31.6982" y="32.6035" width="1.81132" height="1.81132" fill="currentColor"/>
<rect x="31.6982" y="12.6797" width="1.81132" height="1.81132" fill="currentColor"/>
<rect x="31.6982" y="14.4902" width="1.81132" height="1.81132" fill="currentColor"/>
<rect x="31.6982" y="16.3027" width="1.81132" height="1.81132" fill="currentColor"/>
<rect x="31.6982" y="18.1133" width="1.81132" height="1.81132" fill="currentColor"/>
<rect x="31.6982" y="19.9238" width="1.81132" height="1.81132" fill="currentColor"/>
<rect x="32.604" y="21.7363" width="1.81132" height="1.81132" fill="currentColor"/>
<rect x="31.6982" y="23.5469" width="1.81132" height="1.81132" fill="currentColor"/>
<rect x="31.6982" y="25.3594" width="1.81132" height="1.81132" fill="currentColor"/>
<rect x="31.6982" y="27.1699" width="1.81132" height="1.81132" fill="currentColor"/>
<rect x="32.604" y="28.9805" width="1.81132" height="1.81132" fill="currentColor"/>
<rect x="31.6982" y="30.793" width="1.81132" height="1.81132" fill="currentColor"/>
<rect x="31.6982" y="10.8672" width="1.81132" height="1.81132" fill="currentColor"/>
<rect x="33.5093" y="7.24609" width="1.81132" height="1.81132" fill="currentColor"/>
<rect x="31.6982" y="9.05664" width="1.81132" height="1.81132" fill="currentColor"/>
<rect x="35.3208" y="5.43359" width="1.81132" height="1.81132" fill="currentColor"/>
<rect x="37.1323" y="5.43359" width="1.81132" height="1.81132" fill="currentColor"/>
<rect x="38.9434" y="5.43359" width="1.81132" height="1.81132" fill="currentColor"/>
<rect x="40.7549" y="5.43359" width="1.81132" height="1.81132" fill="currentColor"/>
<rect x="42.5659" y="5.43359" width="1.81132" height="1.81132" fill="currentColor"/>
<rect x="44.3774" y="5.43359" width="1.81132" height="1.81132" fill="currentColor"/>
<rect x="46.1885" y="3.62305" width="1.81132" height="1.81132" fill="currentColor"/>
</svg>
