<svg width="44" height="46" viewBox="0 0 44 46" fill="none" xmlns="http://www.w3.org/2000/svg">
<rect x="22.6216" y="41.0273" width="1.24324" height="1.24324" fill="currentColor"/>
<rect x="22.6216" y="42.2695" width="1.24324" height="1.24324" fill="currentColor"/>
<rect x="23.8652" y="43.5137" width="1.24324" height="1.24324" fill="currentColor"/>
<rect x="23.8652" y="44.7578" width="1.24324" height="1.24324" fill="currentColor"/>
<rect x="21.3784" y="39.7832" width="1.24324" height="1.24324" fill="currentColor"/>
<rect x="31.3242" y="37.2969" width="1.24324" height="1.24324" fill="currentColor"/>
<rect x="28.8379" y="38.541" width="1.24324" height="1.24324" fill="currentColor"/>
<rect x="23.8652" y="39.7832" width="1.24324" height="1.24324" fill="currentColor"/>
<rect x="22.6216" y="39.7832" width="1.24324" height="1.24324" fill="currentColor"/>
<rect x="25.1079" y="39.7832" width="1.24324" height="1.24324" fill="currentColor"/>
<rect x="26.3516" y="39.7832" width="1.24324" height="1.24324" fill="currentColor"/>
<rect x="27.5947" y="38.541" width="1.24324" height="1.24324" fill="currentColor"/>
<rect x="30.0815" y="38.541" width="1.24324" height="1.24324" fill="currentColor"/>
<rect x="32.5679" y="36.0547" width="1.24324" height="1.24324" fill="currentColor"/>
<rect x="37.5405" y="28.5938" width="1.24324" height="1.24324" fill="currentColor"/>
<rect x="37.5405" y="29.8379" width="1.24324" height="1.24324" fill="currentColor"/>
<rect x="36.2969" y="31.082" width="1.24324" height="1.24324" fill="currentColor"/>
<rect x="36.2969" y="32.3242" width="1.24324" height="1.24324" fill="currentColor"/>
<rect x="35.0542" y="33.5684" width="1.24324" height="1.24324" fill="currentColor"/>
<rect x="35.0542" y="34.8105" width="1.24324" height="1.24324" fill="currentColor"/>
<rect x="33.8105" y="36.0547" width="1.24324" height="1.24324" fill="currentColor"/>
<rect x="37.5405" y="27.3516" width="1.24324" height="1.24324" fill="currentColor"/>
<rect x="36.2969" y="23.6211" width="1.24324" height="1.24324" fill="currentColor"/>
<rect x="36.2969" y="24.8652" width="1.24324" height="1.24324" fill="currentColor"/>
<rect x="37.5405" y="26.1074" width="1.24324" height="1.24324" fill="currentColor"/>
<rect x="35.0542" y="22.3789" width="1.24324" height="1.24324" fill="currentColor"/>
<rect x="31.3242" y="19.8926" width="1.24324" height="1.24324" fill="currentColor"/>
<rect x="33.8105" y="21.1348" width="1.24324" height="1.24324" fill="currentColor"/>
<rect x="32.5679" y="19.8926" width="1.24324" height="1.24324" fill="currentColor"/>
<rect x="30.0815" y="19.8926" width="1.24324" height="1.24324" fill="currentColor"/>
<rect x="30.0815" y="21.1348" width="1.24324" height="1.24324" fill="currentColor"/>
<rect x="28.8379" y="22.3789" width="1.24324" height="1.24324" fill="currentColor"/>
<rect x="28.8379" y="23.6211" width="1.24324" height="1.24324" fill="currentColor"/>
<rect x="27.5947" y="24.8652" width="1.24324" height="1.24324" fill="currentColor"/>
<rect x="27.5947" y="26.1074" width="1.24324" height="1.24324" fill="currentColor"/>
<rect x="26.3516" y="27.3516" width="1.24324" height="1.24324" fill="currentColor"/>
<rect x="25.1079" y="28.5938" width="1.24324" height="1.24324" fill="currentColor"/>
<rect x="25.1079" y="29.8379" width="1.24324" height="1.24324" fill="currentColor"/>
<rect x="23.8652" y="31.082" width="1.24324" height="1.24324" fill="currentColor"/>
<rect x="22.6216" y="32.3242" width="1.24324" height="1.24324" fill="currentColor"/>
<rect x="21.3784" y="33.5684" width="1.24324" height="1.24324" fill="currentColor"/>
<rect x="20.1348" y="34.8105" width="1.24324" height="1.24324" fill="currentColor"/>
<rect x="18.8921" y="36.0547" width="1.24324" height="1.24324" fill="currentColor"/>
<rect x="18.8921" y="37.2969" width="1.24324" height="1.24324" fill="currentColor"/>
<rect x="20.1348" y="38.541" width="1.24324" height="1.24324" fill="currentColor"/>
<rect x="20.1348" y="39.7832" width="1.24324" height="1.24324" fill="currentColor"/>
<rect x="20.1348" y="41.0273" width="1.24324" height="1.24324" fill="currentColor"/>
<rect x="18.8921" y="41.0273" width="1.24324" height="1.24324" fill="currentColor"/>
<rect x="16.4053" y="42.2695" width="1.24324" height="1.24324" fill="currentColor"/>
<rect x="17.6484" y="41.0273" width="1.24324" height="1.24324" fill="currentColor"/>
<rect x="15.1621" y="42.2695" width="1.24324" height="1.24324" fill="currentColor"/>
<rect x="15.1621" y="41.0273" width="1.24324" height="1.24324" fill="currentColor"/>
<rect x="15.1621" y="39.7832" width="1.24324" height="1.24324" fill="currentColor"/>
<rect x="15.1621" y="38.541" width="1.24324" height="1.24324" fill="currentColor"/>
<rect x="13.9185" y="39.7832" width="1.24324" height="1.24324" fill="currentColor"/>
<rect x="11.4321" y="41.0273" width="1.24324" height="1.24324" fill="currentColor"/>
<rect x="12.6758" y="39.7832" width="1.24324" height="1.24324" fill="currentColor"/>
<rect x="10.189" y="41.0273" width="1.24324" height="1.24324" fill="currentColor"/>
<rect x="6.45947" y="42.2695" width="1.24324" height="1.24324" fill="currentColor"/>
<rect x="7.70312" y="41.0273" width="1.24324" height="1.24324" fill="currentColor"/>
<rect x="8.9458" y="41.0273" width="1.24324" height="1.24324" fill="currentColor"/>
<rect x="1.48682" y="39.7832" width="1.24324" height="1.24324" fill="currentColor"/>
<rect x="2.72998" y="41.0273" width="1.24324" height="1.24324" fill="currentColor"/>
<rect x="3.97314" y="41.0273" width="1.24324" height="1.24324" fill="currentColor"/>
<rect x="5.21631" y="41.0273" width="1.24324" height="1.24324" fill="currentColor"/>
<rect x="0.243164" y="34.8105" width="1.24324" height="1.24324" fill="currentColor"/>
<rect x="0.243164" y="36.0547" width="1.24324" height="1.24324" fill="currentColor"/>
<rect x="0.243164" y="37.2969" width="1.24324" height="1.24324" fill="currentColor"/>
<rect x="0.243164" y="38.541" width="1.24324" height="1.24324" fill="currentColor"/>
<rect x="2.72998" y="26.1074" width="1.24324" height="1.24324" fill="currentColor"/>
<rect x="1.48682" y="27.3516" width="1.24324" height="1.24324" fill="currentColor"/>
<rect x="1.48682" y="28.5938" width="1.24324" height="1.24324" fill="currentColor"/>
<rect x="0.243164" y="29.8379" width="1.24324" height="1.24324" fill="currentColor"/>
<rect x="0.243164" y="31.082" width="1.24324" height="1.24324" fill="currentColor"/>
<rect x="0.243164" y="32.3242" width="1.24324" height="1.24324" fill="currentColor"/>
<rect x="0.243164" y="33.5684" width="1.24324" height="1.24324" fill="currentColor"/>
<rect x="2.72998" y="24.8652" width="1.24324" height="1.24324" fill="currentColor"/>
<rect x="12.6758" y="17.4062" width="1.24324" height="1.24324" fill="currentColor"/>
<rect x="10.189" y="18.6484" width="1.24324" height="1.24324" fill="currentColor"/>
<rect x="8.9458" y="19.8926" width="1.24324" height="1.24324" fill="currentColor"/>
<rect x="6.45947" y="21.1348" width="1.24324" height="1.24324" fill="currentColor"/>
<rect x="5.21631" y="22.3789" width="1.24324" height="1.24324" fill="currentColor"/>
<rect x="3.97314" y="23.6211" width="1.24324" height="1.24324" fill="currentColor"/>
<rect x="3.97314" y="24.8652" width="1.24324" height="1.24324" fill="currentColor"/>
<rect x="7.70312" y="19.8926" width="1.24324" height="1.24324" fill="currentColor"/>
<rect x="11.4321" y="18.6484" width="1.24324" height="1.24324" fill="currentColor"/>
<rect x="12.6758" y="14.9199" width="1.24324" height="1.24324" fill="currentColor"/>
<rect x="12.6758" y="16.1621" width="1.24324" height="1.24324" fill="currentColor"/>
<rect x="12.6758" y="13.6758" width="1.24324" height="1.24324" fill="currentColor"/>
<rect x="12.6758" y="11.1895" width="1.24324" height="1.24324" fill="currentColor"/>
<rect x="12.6758" y="12.4316" width="1.24324" height="1.24324" fill="currentColor"/>
<rect x="12.6758" y="9.94531" width="1.24324" height="1.24324" fill="currentColor"/>
<rect x="8.9458" y="9.94531" width="1.24324" height="1.24324" fill="currentColor"/>
<rect x="10.189" y="9.94531" width="1.24324" height="1.24324" fill="currentColor"/>
<rect x="11.4321" y="9.94531" width="1.24324" height="1.24324" fill="currentColor"/>
<rect x="7.70312" y="9.94531" width="1.24324" height="1.24324" fill="currentColor"/>
<rect x="2.72998" y="9.94531" width="1.24324" height="1.24324" fill="currentColor"/>
<rect x="3.97314" y="9.94531" width="1.24324" height="1.24324" fill="currentColor"/>
<rect x="5.21631" y="9.94531" width="1.24324" height="1.24324" fill="currentColor"/>
<rect x="6.45947" y="9.94531" width="1.24324" height="1.24324" fill="currentColor"/>
<rect x="1.48682" y="9.94531" width="1.24324" height="1.24324" fill="currentColor"/>
<rect x="1.48682" y="6.2168" width="1.24324" height="1.24324" fill="currentColor"/>
<rect x="1.48682" y="7.45898" width="1.24324" height="1.24324" fill="currentColor"/>
<rect x="1.48682" y="8.70312" width="1.24324" height="1.24324" fill="currentColor"/>
<rect x="1.48682" y="4.97266" width="1.24324" height="1.24324" fill="currentColor"/>
<rect x="2.72998" y="4.97266" width="1.24324" height="1.24324" fill="currentColor"/>
<rect x="3.97314" y="4.97266" width="1.24324" height="1.24324" fill="currentColor"/>
<rect x="5.21631" y="6.2168" width="1.24324" height="1.24324" fill="currentColor"/>
<rect x="6.45947" y="6.2168" width="1.24324" height="1.24324" fill="currentColor"/>
<rect x="7.70312" y="6.2168" width="1.24324" height="1.24324" fill="currentColor"/>
<rect x="8.9458" y="6.2168" width="1.24324" height="1.24324" fill="currentColor"/>
<rect x="10.189" y="6.2168" width="1.24324" height="1.24324" fill="currentColor"/>
<rect x="11.4321" y="6.2168" width="1.24324" height="1.24324" fill="currentColor"/>
<rect x="12.6758" y="6.2168" width="1.24324" height="1.24324" fill="currentColor"/>
<rect x="13.9185" y="6.2168" width="1.24324" height="1.24324" fill="currentColor"/>
<rect x="13.9185" y="3.73047" width="1.24324" height="1.24324" fill="currentColor"/>
<rect x="13.9185" y="4.97266" width="1.24324" height="1.24324" fill="currentColor"/>
<rect x="13.9185" y="2.48633" width="1.24324" height="1.24324" fill="currentColor"/>
<rect x="13.9185" width="1.24324" height="1.24324" fill="currentColor"/>
<rect x="13.9185" y="1.24414" width="1.24324" height="1.24324" fill="currentColor"/>
<rect x="15.1621" width="1.24324" height="1.24324" fill="currentColor"/>
<rect x="16.4053" width="1.24324" height="1.24324" fill="currentColor"/>
<rect x="17.6484" width="1.24324" height="1.24324" fill="currentColor"/>
<rect x="18.8921" width="1.24324" height="1.24324" fill="currentColor"/>
<rect x="20.1348" width="1.24324" height="1.24324" fill="currentColor"/>
<rect x="18.8921" y="1.24414" width="1.24324" height="1.24324" fill="currentColor"/>
<rect x="18.8921" y="2.48633" width="1.24324" height="1.24324" fill="currentColor"/>
<rect x="18.8921" y="3.73047" width="1.24324" height="1.24324" fill="currentColor"/>
<rect x="18.8921" y="4.97266" width="1.24324" height="1.24324" fill="currentColor"/>
<rect x="18.8921" y="6.2168" width="1.24324" height="1.24324" fill="currentColor"/>
<rect x="20.1348" y="6.2168" width="1.24324" height="1.24324" fill="currentColor"/>
<rect x="21.3784" y="6.2168" width="1.24324" height="1.24324" fill="currentColor"/>
<rect x="22.6216" y="4.97266" width="1.24324" height="1.24324" fill="currentColor"/>
<rect x="23.8652" y="4.97266" width="1.24324" height="1.24324" fill="currentColor"/>
<rect x="25.1079" y="4.97266" width="1.24324" height="1.24324" fill="currentColor"/>
<rect x="26.3516" y="4.97266" width="1.24324" height="1.24324" fill="currentColor"/>
<rect x="27.5947" y="4.97266" width="1.24324" height="1.24324" fill="currentColor"/>
<rect x="35.0542" y="3.73047" width="1.24324" height="1.24324" fill="currentColor"/>
<rect x="28.8379" y="4.97266" width="1.24324" height="1.24324" fill="currentColor"/>
<rect x="30.0815" y="4.97266" width="1.24324" height="1.24324" fill="currentColor"/>
<rect x="31.3242" y="4.97266" width="1.24324" height="1.24324" fill="currentColor"/>
<rect x="32.5679" y="3.73047" width="1.24324" height="1.24324" fill="currentColor"/>
<rect x="33.8105" y="3.73047" width="1.24324" height="1.24324" fill="currentColor"/>
<rect x="36.2969" y="3.73047" width="1.24324" height="1.24324" fill="currentColor"/>
<rect x="36.2969" y="4.97266" width="1.24324" height="1.24324" fill="currentColor"/>
<rect x="36.2969" y="6.2168" width="1.24324" height="1.24324" fill="currentColor"/>
<rect x="36.2969" y="7.45898" width="1.24324" height="1.24324" fill="currentColor"/>
<rect x="36.2969" y="8.70312" width="1.24324" height="1.24324" fill="currentColor"/>
<rect x="33.8105" y="8.70312" width="1.24324" height="1.24324" fill="currentColor"/>
<rect x="27.5947" y="9.94531" width="1.24324" height="1.24324" fill="currentColor"/>
<rect x="28.8379" y="9.94531" width="1.24324" height="1.24324" fill="currentColor"/>
<rect x="30.0815" y="8.70312" width="1.24324" height="1.24324" fill="currentColor"/>
<rect x="31.3242" y="8.70312" width="1.24324" height="1.24324" fill="currentColor"/>
<rect x="32.5679" y="8.70312" width="1.24324" height="1.24324" fill="currentColor"/>
<rect x="35.0542" y="8.70312" width="1.24324" height="1.24324" fill="currentColor"/>
<rect x="22.6216" y="9.94531" width="1.24324" height="1.24324" fill="currentColor"/>
<rect x="18.8921" y="9.94531" width="1.24324" height="1.24324" fill="currentColor"/>
<rect x="20.1348" y="9.94531" width="1.24324" height="1.24324" fill="currentColor"/>
<rect x="21.3784" y="9.94531" width="1.24324" height="1.24324" fill="currentColor"/>
<rect x="23.8652" y="9.94531" width="1.24324" height="1.24324" fill="currentColor"/>
<rect x="25.1079" y="9.94531" width="1.24324" height="1.24324" fill="currentColor"/>
<rect x="26.3516" y="9.94531" width="1.24324" height="1.24324" fill="currentColor"/>
<rect x="17.6484" y="9.94531" width="1.24324" height="1.24324" fill="currentColor"/>
<rect x="17.6484" y="11.1895" width="1.24324" height="1.24324" fill="currentColor"/>
<rect x="17.6484" y="12.4316" width="1.24324" height="1.24324" fill="currentColor"/>
<rect x="17.6484" y="13.6758" width="1.24324" height="1.24324" fill="currentColor"/>
<rect x="17.6484" y="14.9199" width="1.24324" height="1.24324" fill="currentColor"/>
<rect x="17.6484" y="16.1621" width="1.24324" height="1.24324" fill="currentColor"/>
<rect x="20.1348" y="14.9199" width="1.24324" height="1.24324" fill="currentColor"/>
<rect x="18.8921" y="14.9199" width="1.24324" height="1.24324" fill="currentColor"/>
<rect x="21.3784" y="14.9199" width="1.24324" height="1.24324" fill="currentColor"/>
<rect x="22.6216" y="14.9199" width="1.24324" height="1.24324" fill="currentColor"/>
<rect x="23.8652" y="14.9199" width="1.24324" height="1.24324" fill="currentColor"/>
<rect x="25.1079" y="14.9199" width="1.24324" height="1.24324" fill="currentColor"/>
<rect x="26.3516" y="14.9199" width="1.24324" height="1.24324" fill="currentColor"/>
<rect x="27.5947" y="14.9199" width="1.24324" height="1.24324" fill="currentColor"/>
<rect x="27.5947" y="13.6758" width="1.24324" height="1.24324" fill="currentColor"/>
<rect x="27.5947" y="12.4316" width="1.24324" height="1.24324" fill="currentColor"/>
<rect x="27.5947" y="11.1895" width="1.24324" height="1.24324" fill="currentColor"/>
<rect x="28.8379" y="11.1895" width="1.24324" height="1.24324" fill="currentColor"/>
<rect x="30.0815" y="11.1895" width="1.24324" height="1.24324" fill="currentColor"/>
<rect x="31.3242" y="11.1895" width="1.24324" height="1.24324" fill="currentColor"/>
<rect x="32.5679" y="12.4316" width="1.24324" height="1.24324" fill="currentColor"/>
<rect x="32.5679" y="13.6758" width="1.24324" height="1.24324" fill="currentColor"/>
<rect x="32.5679" y="14.9199" width="1.24324" height="1.24324" fill="currentColor"/>
<rect x="31.3242" y="14.9199" width="1.24324" height="1.24324" fill="currentColor"/>
<rect x="33.8105" y="16.1621" width="1.24324" height="1.24324" fill="currentColor"/>
<rect x="36.2969" y="17.4062" width="1.24324" height="1.24324" fill="currentColor"/>
<rect x="37.5405" y="18.6484" width="1.24324" height="1.24324" fill="currentColor"/>
<rect x="38.7837" y="19.8926" width="1.24324" height="1.24324" fill="currentColor"/>
<rect x="32.5679" y="16.1621" width="1.24324" height="1.24324" fill="currentColor"/>
<rect x="35.0542" y="16.1621" width="1.24324" height="1.24324" fill="currentColor"/>
<rect x="40.0269" y="21.1348" width="1.24324" height="1.24324" fill="currentColor"/>
<rect x="41.27" y="22.3789" width="1.24324" height="1.24324" fill="currentColor"/>
<rect x="41.27" y="23.6211" width="1.24324" height="1.24324" fill="currentColor"/>
<rect x="41.27" y="24.8652" width="1.24324" height="1.24324" fill="currentColor"/>
<rect x="42.5132" y="26.1074" width="1.24324" height="1.24324" fill="currentColor"/>
<rect x="42.5132" y="27.3516" width="1.24324" height="1.24324" fill="currentColor"/>
<rect x="42.5132" y="28.5938" width="1.24324" height="1.24324" fill="currentColor"/>
<rect x="42.5132" y="29.8379" width="1.24324" height="1.24324" fill="currentColor"/>
<rect x="42.5132" y="31.082" width="1.24324" height="1.24324" fill="currentColor"/>
<rect x="41.27" y="32.3242" width="1.24324" height="1.24324" fill="currentColor"/>
<rect x="41.27" y="33.5684" width="1.24324" height="1.24324" fill="currentColor"/>
<rect x="40.0269" y="34.8105" width="1.24324" height="1.24324" fill="currentColor"/>
<rect x="40.0269" y="36.0547" width="1.24324" height="1.24324" fill="currentColor"/>
<rect x="38.7837" y="37.2969" width="1.24324" height="1.24324" fill="currentColor"/>
<rect x="37.5405" y="38.541" width="1.24324" height="1.24324" fill="currentColor"/>
<rect x="36.2969" y="39.7832" width="1.24324" height="1.24324" fill="currentColor"/>
<rect x="35.0542" y="41.0273" width="1.24324" height="1.24324" fill="currentColor"/>
<rect x="32.5679" y="42.2695" width="1.24324" height="1.24324" fill="currentColor"/>
<rect x="28.8379" y="43.5137" width="1.24324" height="1.24324" fill="currentColor"/>
<rect x="25.1079" y="44.7578" width="1.24324" height="1.24324" fill="currentColor"/>
<rect x="26.3516" y="44.7578" width="1.24324" height="1.24324" fill="currentColor"/>
<rect x="27.5947" y="43.5137" width="1.24324" height="1.24324" fill="currentColor"/>
<rect x="30.0815" y="43.5137" width="1.24324" height="1.24324" fill="currentColor"/>
<rect x="31.3242" y="42.2695" width="1.24324" height="1.24324" fill="currentColor"/>
<rect x="33.8105" y="41.0273" width="1.24324" height="1.24324" fill="currentColor"/>
<rect x="7.70312" y="37.2969" width="1.24324" height="1.24324" fill="currentColor"/>
<rect x="8.9458" y="36.0547" width="1.24324" height="1.24324" fill="currentColor"/>
<rect x="10.189" y="36.0547" width="1.24324" height="1.24324" fill="currentColor"/>
<rect x="6.45947" y="37.2969" width="1.24324" height="1.24324" fill="currentColor"/>
<rect x="12.6758" y="34.8105" width="1.24324" height="1.24324" fill="currentColor"/>
<rect x="11.4321" y="36.0547" width="1.24324" height="1.24324" fill="currentColor"/>
<rect x="13.9185" y="33.5684" width="1.24324" height="1.24324" fill="currentColor"/>
<rect x="12.6758" y="28.5938" width="1.24324" height="1.24324" fill="currentColor"/>
<rect x="12.6758" y="29.8379" width="1.24324" height="1.24324" fill="currentColor"/>
<rect x="12.6758" y="31.082" width="1.24324" height="1.24324" fill="currentColor"/>
<rect x="13.9185" y="32.3242" width="1.24324" height="1.24324" fill="currentColor"/>
<rect x="12.6758" y="27.3516" width="1.24324" height="1.24324" fill="currentColor"/>
<rect x="12.6758" y="22.3789" width="1.24324" height="1.24324" fill="currentColor"/>
<rect x="12.6758" y="23.6211" width="1.24324" height="1.24324" fill="currentColor"/>
<rect x="12.6758" y="24.8652" width="1.24324" height="1.24324" fill="currentColor"/>
<rect x="12.6758" y="26.1074" width="1.24324" height="1.24324" fill="currentColor"/>
<rect x="10.189" y="23.6211" width="1.24324" height="1.24324" fill="currentColor"/>
<rect x="8.9458" y="24.8652" width="1.24324" height="1.24324" fill="currentColor"/>
<rect x="7.70312" y="26.1074" width="1.24324" height="1.24324" fill="currentColor"/>
<rect x="7.70312" y="27.3516" width="1.24324" height="1.24324" fill="currentColor"/>
<rect x="11.4321" y="23.6211" width="1.24324" height="1.24324" fill="currentColor"/>
<rect x="6.45947" y="27.3516" width="1.24324" height="1.24324" fill="currentColor"/>
<rect x="6.45947" y="28.5938" width="1.24324" height="1.24324" fill="currentColor"/>
<rect x="5.21631" y="29.8379" width="1.24324" height="1.24324" fill="currentColor"/>
<rect x="5.21631" y="31.082" width="1.24324" height="1.24324" fill="currentColor"/>
<rect x="5.21631" y="32.3242" width="1.24324" height="1.24324" fill="currentColor"/>
<rect x="3.97314" y="33.5684" width="1.24324" height="1.24324" fill="currentColor"/>
<rect x="5.21631" y="34.8105" width="1.24324" height="1.24324" fill="currentColor"/>
<rect x="5.21631" y="36.0547" width="1.24324" height="1.24324" fill="currentColor"/>
<rect x="6.45947" y="36.0547" width="1.24324" height="1.24324" fill="currentColor"/>
<rect x="21.3784" y="26.1074" width="1.24324" height="1.24324" fill="currentColor"/>
<rect x="21.3784" y="27.3516" width="1.24324" height="1.24324" fill="currentColor"/>
<rect x="20.1348" y="28.5938" width="1.24324" height="1.24324" fill="currentColor"/>
<rect x="18.8921" y="29.8379" width="1.24324" height="1.24324" fill="currentColor"/>
<rect x="17.6484" y="31.082" width="1.24324" height="1.24324" fill="currentColor"/>
<rect x="22.6216" y="24.8652" width="1.24324" height="1.24324" fill="currentColor"/>
<rect x="25.1079" y="19.8926" width="1.24324" height="1.24324" fill="currentColor"/>
<rect x="25.1079" y="21.1348" width="1.24324" height="1.24324" fill="currentColor"/>
<rect x="23.8652" y="22.3789" width="1.24324" height="1.24324" fill="currentColor"/>
<rect x="23.8652" y="23.6211" width="1.24324" height="1.24324" fill="currentColor"/>
<rect x="26.3516" y="18.6484" width="1.24324" height="1.24324" fill="currentColor"/>
<rect x="22.6216" y="18.6484" width="1.24324" height="1.24324" fill="currentColor"/>
<rect x="23.8652" y="18.6484" width="1.24324" height="1.24324" fill="currentColor"/>
<rect x="25.1079" y="18.6484" width="1.24324" height="1.24324" fill="currentColor"/>
<rect x="21.3784" y="18.6484" width="1.24324" height="1.24324" fill="currentColor"/>
<rect x="18.8921" y="19.8926" width="1.24324" height="1.24324" fill="currentColor"/>
<rect x="17.6484" y="19.8926" width="1.24324" height="1.24324" fill="currentColor"/>
<rect x="20.1348" y="19.8926" width="1.24324" height="1.24324" fill="currentColor"/>
<rect x="17.6484" y="21.1348" width="1.24324" height="1.24324" fill="currentColor"/>
<rect x="17.6484" y="22.3789" width="1.24324" height="1.24324" fill="currentColor"/>
<rect x="17.6484" y="23.6211" width="1.24324" height="1.24324" fill="currentColor"/>
<rect x="17.6484" y="24.8652" width="1.24324" height="1.24324" fill="currentColor"/>
<rect x="17.6484" y="26.1074" width="1.24324" height="1.24324" fill="currentColor"/>
<rect x="17.6484" y="27.3516" width="1.24324" height="1.24324" fill="currentColor"/>
<rect x="17.6484" y="28.5938" width="1.24324" height="1.24324" fill="currentColor"/>
<rect x="17.6484" y="29.8379" width="1.24324" height="1.24324" fill="currentColor"/>
</svg>
