<svg width="30" height="30" viewBox="0 0 30 30" fill="none" xmlns="http://www.w3.org/2000/svg">
<path fill-rule="evenodd" clip-rule="evenodd" d="M14.5 4H13.5455V4.95449V4.95454V5.90903H14.5H14.5H15.4544H15.4545H16.409V4.95449H15.4545V4H14.5H14.5ZM9.72751 4.95449H10.6817H10.6821H11.6362H11.6363H12.5907H12.5907H13.5452V5.90903H12.5907H12.5907H11.6363H11.6362H10.6821H10.6817H9.72751V4.95449ZM17.3637 4.95449H16.4092V5.90903H17.3637H17.3638H18.3182H18.3183H19.2727V4.95449H18.3183H18.3182H17.3638H17.3637ZM7.81825 5.90927H8.77244H8.77279H9.72698V6.86376V6.86381V7.81825V7.8183V8.77244V8.77279V9.72698H8.77279H8.77244H7.8183H7.81825H6.86381H6.86376H5.90927V8.77279V8.77244V7.81825H6.86376V6.86376H7.81825V5.90927ZM9.72751 5.90927H10.6817H10.6821H11.6362H11.6363H12.5907H12.5907H13.5452V6.86376V6.86381V7.81825V7.8183V8.77244V8.77279V9.72698H12.5907H12.5907H11.6363H11.6362H10.6821H10.6817H9.72751V8.77279V8.77244V7.8183V7.81825V6.86381V6.86376V5.90927ZM13.5455 5.90927H14.5H14.5H15.4544H15.4545H16.409V6.86376V6.86381V7.81825V7.8183V8.77244V8.77279V9.72698H15.4545H15.4544H14.5H14.5H13.5455V8.77279V8.77244V7.8183V7.81825V6.86381V6.86376V5.90927ZM17.3637 5.90927H16.4092V6.86376V6.86381V7.81825V7.8183V8.77244V8.77279V9.72698H17.3637H17.3638H18.3182H18.3183H19.2724H19.2727H20.2269V8.77279V8.77244V7.8183V7.81825V6.86381V6.86376V5.90927H19.2727H19.2724H18.3183H18.3182H17.3638H17.3637ZM21.182 5.90927H20.2275V6.86376V6.86381V7.81825V7.8183V8.77244V8.77279V9.72698H21.1817H21.182H22.1362H22.1362H23.0906H23.0907H24.0452V8.77244H23.0907V7.81825H22.1362V6.86376H21.182V5.90927ZM4.95449 8.77244H5.90903V9.72698H4.95449V8.77244ZM4.95449 9.72751H5.90903V10.6817V10.6821V11.6362V11.6363V12.5907V12.5907V13.5452H4.95454H4.95449H4V12.5907V12.5907V11.6362H4.95449V10.6821V10.6817V9.72751ZM6.86376 9.72751H5.90927V10.6817V10.6821V11.6362V11.6363V12.5907V12.5907V13.5452H6.86376H6.86381H7.81825H7.8183H8.77279V12.5912H8.77292V13.5457H9.72746V12.5912V12.5911V11.6367H8.77326H8.77292H7.81877H7.81872H6.86423V12.5907H6.86381V11.6363H7.81825H7.8183H8.77244H8.77279H9.72698V10.6821V10.6817V9.72751H8.77279H8.77244H7.8183H7.81825H6.86381H6.86376ZM10.6817 9.72751H9.72751V10.6817V10.6821V11.6363H10.6817V11.6367H9.72799V12.5907H9.72751V13.5452H10.6817H10.6821H11.6363V12.5907V12.5907V11.6363H12.5907H12.5907H13.5452V10.6821V10.6817V9.72751H12.5907H12.5907H11.6363H11.6362H10.6821H10.6817ZM14.5 9.72751H13.5455V10.6817V10.6821V11.6362V11.6363V11.6367H12.5912H12.5912H11.6367V12.5911V12.5912V13.5455H11.6362V13.5459H10.6822V14.5004V14.5005V15.4549V15.455V16.4092H10.6821H10.6817H9.72751V17.3637V17.3638V18.3182V18.3183V19.2724V19.2727V20.2269H10.6817H10.6821H11.6362H11.6363H12.5907H12.5907H13.5452V19.2727V19.2724V18.3183V18.3182V17.3638V17.3637V16.4092H12.5907H12.5907H11.6367V16.409H12.5907H12.5907H13.5452V15.455H13.5457V14.5004H12.5912H12.5912H11.6367V14.5H12.5907H12.5907H13.5452V13.5457H13.5457V13.5452H14.5H14.5H15.4545V12.5907V12.5907V11.6363H16.409V10.6821V10.6817V9.72751H15.4545H15.4544H14.5H14.5ZM16.4092 9.72751H17.3637H17.3638H18.3182H18.3183H19.2724H19.2727H20.2269V10.6817V10.6821V11.6362V11.6363V12.5907H19.2732V12.5911H20.2274V13.5457H19.2732H19.2729H18.3187V12.5912V12.5911V11.6367H19.2724V11.6363H18.3183V12.5907V12.5907V13.5452H17.3638H17.3637H16.4095V13.5455H17.3637H17.3638H18.3183V14.5V14.5V15.4545H17.3638H17.3637H16.4095V15.4549V15.455V16.4092H16.4097V15.4549H17.3642H17.3642H18.3187V14.5005V14.5004V13.5459H19.2729H19.2732H20.2274V14.5005H20.2269V15.4544V15.4545V16.409H19.2732V16.4092H20.2269V17.3637V17.3638V18.3182V18.3183V19.2724V19.2727V20.2269H19.2727H19.2724H18.3183H18.3182H17.3638H17.3637H16.4092V19.2727V19.2724V18.3183V18.3182V17.3638V17.3637V16.4094H16.409V17.3637V17.3638V18.3182V18.3183V19.2724V19.2727V20.2269H15.4545H15.4544H14.5H14.5H13.5455V19.2727V19.2724V18.3183V18.3182V17.3638V17.3637V16.4092H13.5459V15.455V15.4549V14.5005V14.5004V13.5459H14.5V13.5455H15.4545V14.5V14.5V15.4544V15.4545V16.409H14.5005V16.4092H15.4544H15.4545H15.4549V15.455V15.4549V14.5005V14.5004V13.5459H16.4092V13.5457H15.4549V12.5912V12.5911V11.6367H16.4092V11.6363V11.6362V10.6821V10.6817V9.72751ZM20.2275 9.72751H21.1817H21.182H22.1362H22.1362H23.0906H23.0907H24.0452V10.6817V10.6821V11.6362V11.6363V12.5907V12.5907V13.5452H23.0907H23.0906H22.1362H22.1362H21.1825V13.5455H22.1362H22.1362H23.0906H23.0907H24.0452V14.5V14.5V15.4544V15.4545V16.409H23.0907H23.0906H22.1367V16.4092H23.0906H23.0907H24.0452V17.3637V17.3638V18.3183H23.0907V19.2727H22.1362V20.2269H21.182H21.1817H20.2275V19.2727V19.2724V18.3183V18.3182V17.3638V17.3637V16.4092H21.1817H21.182H21.1821V15.455H21.182V16.409H20.2275V15.4544H20.2279V14.5005V14.5004V13.5459H21.1817V13.5457H20.2279V12.5912V12.5911V11.6367H21.1821H21.1825H22.1362V11.6363H21.182H21.1817H20.2275V10.6821V10.6817V9.72751ZM21.1825 14.5V14.5004H22.1362V14.5H21.1825ZM24.0454 10.6817H25V11.6362V11.6363V12.5907V12.5907V13.5452H24.0454V12.5907V12.5907V11.6363V11.6362V10.6817ZM4 13.5455H4.95449H4.95454H5.90903V14.5V14.5V15.4544V15.4545V16.409H4.95449V15.4545H4V14.5V14.5V13.5455ZM5.90927 13.5455H6.86376H6.86381H7.81825H7.8183H8.77279V14.5V14.5V15.4544V15.4545V16.409H7.8183H7.81825H6.86381H6.86376H5.90927V15.4545V15.4544V14.5V14.5V13.5455ZM10.6821 13.5455H9.72751V14.5V14.5V15.4544V15.4545V16.409H10.6821V15.4545V15.4544V14.5V14.5V13.5455ZM24.0454 13.5455H25V14.5V14.5V15.4544V15.4545V16.409H24.0454V15.4545V15.4544V14.5V14.5V13.5455ZM5.90903 16.4092H4.95449V17.3638H5.90903V16.4092ZM5.90927 16.4092H6.86376H6.86381H7.81825H7.8183H8.77244H8.77279H8.77292V15.455V15.4549V14.5005V14.5004V13.5459H9.72746V14.5004V14.5005V15.4549V15.455V16.4094H9.72698V17.3637V17.3638V18.3182V18.3183V19.2724V19.2727V20.2269H8.77279H8.77244H7.8183H7.81825H6.86376V19.2727H5.90927V18.3183V18.3182V17.3638V17.3637V16.4092ZM8.77244 20.2275H9.72698V21.1817V21.182V22.1362V22.1362V23.0906V23.0907V24.0452H8.77244V23.0907V23.0906V22.1362V22.1362V21.182V21.1817V20.2275ZM10.6817 20.2275H9.72751V21.1817V21.182V22.1362V22.1362V23.0906V23.0907V24.0452H10.6821V23.0907H11.6363V22.1362H12.5907H12.5907H13.5452V21.182V21.1817V20.2275H12.5907H12.5907H11.6363H11.6362H10.6821H10.6817ZM14.5 20.2275H13.5455V21.1817V21.182V22.1362H14.5H14.5H15.4544H15.4545H16.409V21.182V21.1817V20.2275H15.4545H15.4544H14.5H14.5ZM16.4092 20.2275H17.3637H17.3638H18.3182H18.3183H19.2724H19.2727H20.2269V21.182H19.2727H19.2724H18.3183V22.1362H17.3638H17.3637H16.4092V21.182V21.1817V20.2275ZM8.77244 24.0454H7.81825V25H8.77244H8.77279H9.72698V24.0454H8.77279H8.77244Z" fill="#381E1F"/>
</svg>
