<svg width="40" height="40" viewBox="0 0 40 40" fill="none" xmlns="http://www.w3.org/2000/svg">
<rect x="33.6841" width="3.15789" height="2.10526" fill="currentColor"/>
<rect x="31.5791" width="2.10526" height="2.10526" fill="currentColor"/>
<rect x="29.4736" width="2.10526" height="2.10526" fill="currentColor"/>
<rect x="36.8423" y="2.10547" width="2.10526" height="2.10526" fill="currentColor"/>
<rect x="37.8945" y="4.21094" width="2.10526" height="2.10526" fill="currentColor"/>
<rect x="37.8945" y="6.31641" width="2.10526" height="2.10526" fill="currentColor"/>
<rect x="37.8945" y="8.42188" width="2.10526" height="2.10526" fill="currentColor"/>
<rect x="36.8423" y="10.5254" width="2.10526" height="2.10526" fill="currentColor"/>
<rect x="35.7896" y="12.6309" width="2.10526" height="2.10526" fill="currentColor"/>
<rect x="34.7368" y="14.7363" width="2.10526" height="2.10526" fill="currentColor"/>
<rect x="35.7896" y="16.8418" width="2.10526" height="2.10526" fill="currentColor"/>
<rect x="36.8423" y="18.9473" width="2.10526" height="2.10526" fill="currentColor"/>
<rect x="36.8423" y="21.0527" width="2.10526" height="2.10526" fill="currentColor"/>
<rect x="35.7896" y="23.1582" width="2.10526" height="2.10526" fill="currentColor"/>
<rect x="35.7896" y="25.2637" width="2.10526" height="2.10526" fill="currentColor"/>
<rect x="35.7896" y="27.3691" width="2.10526" height="2.10526" fill="currentColor"/>
<rect x="33.6841" y="29.4746" width="2.10526" height="2.10526" fill="currentColor"/>
<rect x="33.6841" y="31.5781" width="2.10526" height="2.10526" fill="currentColor"/>
<rect x="31.5791" y="33.6836" width="2.10526" height="2.10526" fill="currentColor"/>
<rect x="27.3687" y="35.7891" width="2.10526" height="2.10526" fill="currentColor"/>
<rect x="29.4736" y="35.7891" width="2.10526" height="2.10526" fill="currentColor"/>
<rect x="25.2632" y="35.7891" width="2.10526" height="2.10526" fill="currentColor"/>
<rect x="18.9473" y="37.8945" width="2.10526" height="2.10526" fill="currentColor"/>
<rect x="21.0527" y="37.8945" width="2.10526" height="2.10526" fill="currentColor"/>
<rect x="23.1577" y="37.8945" width="2.10526" height="2.10526" fill="currentColor"/>
<rect x="25.2632" y="37.8945" width="2.10526" height="2.10526" fill="currentColor"/>
<rect x="14.7368" y="37.8945" width="2.10526" height="2.10526" fill="currentColor"/>
<rect x="16.8423" y="37.8945" width="2.10526" height="2.10526" fill="currentColor"/>
<rect x="12.6313" y="35.7891" width="2.10526" height="2.10526" fill="currentColor"/>
<rect x="8.4209" y="33.6836" width="2.10526" height="2.10526" fill="currentColor"/>
<rect x="10.5264" y="35.7891" width="2.10526" height="2.10526" fill="currentColor"/>
<rect x="6.31592" y="33.6836" width="2.10526" height="2.10526" fill="currentColor"/>
<rect x="4.21045" y="27.3691" width="2.10526" height="2.10526" fill="currentColor"/>
<rect x="4.21045" y="29.4746" width="2.10526" height="2.10526" fill="currentColor"/>
<rect x="6.31592" y="31.5781" width="2.10526" height="2.10526" fill="currentColor"/>
<rect x="2.10547" y="21.0527" width="2.10526" height="2.10526" fill="currentColor"/>
<rect x="2.10547" y="23.1582" width="2.10526" height="2.10526" fill="currentColor"/>
<rect x="2.10547" y="25.2637" width="2.10526" height="2.10526" fill="currentColor"/>
<rect x="4.21045" y="14.7363" width="2.10526" height="2.10526" fill="currentColor"/>
<rect x="3.15771" y="16.8418" width="2.10526" height="2.10526" fill="currentColor"/>
<rect x="2.10547" y="18.9473" width="2.10526" height="2.10526" fill="currentColor"/>
<rect x="2.10547" y="12.6309" width="2.10526" height="2.10526" fill="currentColor"/>
<rect x="1.05273" y="10.5254" width="2.10526" height="2.10526" fill="currentColor"/>
<rect y="8.42188" width="2.10526" height="2.10526" fill="currentColor"/>
<rect x="1.05273" y="4.21094" width="2.10526" height="2.10526" fill="currentColor"/>
<rect y="6.31641" width="2.10526" height="2.10526" fill="currentColor"/>
<rect x="2.10547" y="2.10547" width="2.10526" height="2.10526" fill="currentColor"/>
<rect x="3.15771" width="2.10526" height="2.10526" fill="currentColor"/>
<rect x="4.21045" width="2.10526" height="2.10526" fill="currentColor"/>
<rect x="6.31592" width="2.10526" height="2.10526" fill="currentColor"/>
<rect x="8.4209" width="2.10526" height="2.10526" fill="currentColor"/>
<rect x="10.5264" width="2.10526" height="2.10526" fill="currentColor"/>
<rect x="12.6313" y="1.05273" width="2.10526" height="2.10526" fill="currentColor"/>
<rect x="14.7368" y="3.1582" width="2.10526" height="4.21053" fill="currentColor"/>
<rect x="16.8423" y="7.36914" width="2.10526" height="2.10526" fill="currentColor"/>
<rect x="18.9473" y="7.36914" width="2.10526" height="2.10526" fill="currentColor"/>
<rect x="21.0527" y="7.36914" width="2.10526" height="2.10526" fill="currentColor"/>
<rect x="23.1577" y="3.1582" width="2.10526" height="4.21053" fill="currentColor"/>
<rect x="25.2632" y="1.05273" width="2.10526" height="2.10526" fill="currentColor"/>
<rect x="27.3687" width="2.10526" height="2.10526" fill="currentColor"/>
<rect x="17.8945" y="30.5254" width="2.10526" height="2.10526" fill="currentColor"/>
<rect x="20" y="30.5254" width="2.10526" height="2.10526" fill="currentColor"/>
<rect x="24.2104" y="29.4746" width="2.10526" height="2.10526" fill="currentColor"/>
<rect x="22.1055" y="30.5254" width="2.10526" height="2.10526" fill="currentColor"/>
<rect x="26.3159" y="27.3691" width="2.10526" height="2.10526" fill="currentColor"/>
<rect x="27.3687" y="25.2637" width="2.10526" height="2.10526" fill="currentColor"/>
<rect width="2.10526" height="2.10526" transform="matrix(-1 0 0 1 17.8945 29.4746)" fill="currentColor"/>
<rect width="2.10526" height="2.10526" transform="matrix(-1 0 0 1 15.7896 27.3691)" fill="currentColor"/>
<rect width="2.10526" height="2.10526" transform="matrix(-1 0 0 1 14.7368 25.2637)" fill="currentColor"/>
</svg>
