<svg width="42" height="42" viewBox="0 0 42 42" fill="none" xmlns="http://www.w3.org/2000/svg">
<rect x="32.4546" y="21" width="1.90909" height="1.90909" fill="currentColor"/>
<rect x="32.4546" y="22.9082" width="1.90909" height="1.90909" fill="currentColor"/>
<rect x="32.4546" y="24.8184" width="1.90909" height="1.90909" fill="currentColor"/>
<rect x="32.4546" y="26.7266" width="1.90909" height="1.90909" fill="currentColor"/>
<rect x="32.4546" y="19.0918" width="1.90909" height="1.90909" fill="currentColor"/>
<rect x="30.5454" y="17.1816" width="1.90909" height="1.90909" fill="currentColor"/>
<rect x="28.6362" y="17.1816" width="1.90909" height="1.90909" fill="currentColor"/>
<rect x="32.4546" y="5.72656" width="1.90909" height="1.90909" fill="currentColor"/>
<rect x="32.4546" y="7.63672" width="1.90909" height="1.90909" fill="currentColor"/>
<rect x="32.4546" y="9.54492" width="1.90909" height="1.90909" fill="currentColor"/>
<rect x="32.4546" y="11.4551" width="1.90909" height="1.90909" fill="currentColor"/>
<rect x="32.4546" y="13.3633" width="1.90909" height="1.90909" fill="currentColor"/>
<rect x="30.5454" y="15.2734" width="1.90909" height="1.90909" fill="currentColor"/>
<rect x="30.5454" y="3.81836" width="1.90909" height="1.90909" fill="currentColor"/>
<rect x="28.6362" y="1.9082" width="1.90909" height="1.90909" fill="currentColor"/>
<rect x="26.7271" y="1.91016" width="1.90909" height="1.90909" fill="currentColor"/>
<rect x="24.8184" width="1.90909" height="1.90909" fill="currentColor"/>
<rect x="19.0908" y="1.9082" width="1.90909" height="1.90909" fill="currentColor"/>
<rect x="21" y="1.9082" width="1.90909" height="1.90909" fill="currentColor"/>
<rect x="22.9092" width="1.90909" height="1.90909" fill="currentColor"/>
<rect x="17.1816" y="1.9082" width="1.90909" height="1.90909" fill="currentColor"/>
<rect x="17.1816" y="3.81836" width="1.90909" height="1.90909" fill="currentColor"/>
<rect x="15.2729" y="5.72656" width="1.90909" height="1.90909" fill="currentColor"/>
<rect x="13.3638" y="5.72656" width="1.90909" height="1.90909" fill="currentColor"/>
<rect x="11.4546" y="3.81836" width="1.90909" height="1.90909" fill="currentColor"/>
<rect x="9.54541" y="3.81836" width="1.90909" height="1.90909" fill="currentColor"/>
<rect x="7.63623" y="5.72656" width="1.90909" height="1.90909" fill="currentColor"/>
<rect x="5.72705" y="5.72656" width="1.90909" height="1.90909" fill="currentColor"/>
<rect x="3.81836" y="5.72656" width="1.90909" height="1.90909" fill="currentColor"/>
<rect x="3.81836" y="7.63672" width="1.90909" height="1.90909" fill="currentColor"/>
<rect x="1.90918" y="9.54492" width="1.90909" height="1.90909" fill="currentColor"/>
<rect x="1.90918" y="11.4551" width="1.90909" height="1.90909" fill="currentColor"/>
<rect y="13.3633" width="1.90909" height="1.90909" fill="currentColor"/>
<rect x="1.90918" y="15.2734" width="1.90909" height="1.90909" fill="currentColor"/>
<rect x="1.90918" y="17.1816" width="1.90909" height="1.90909" fill="currentColor"/>
<rect x="1.90918" y="19.0918" width="1.90909" height="1.90909" fill="currentColor"/>
<rect x="3.81836" y="21" width="1.90909" height="1.90909" fill="currentColor"/>
<rect x="5.72705" y="21" width="1.90909" height="1.90909" fill="currentColor"/>
<rect x="5.72705" y="22.9102" width="1.90909" height="1.90909" fill="currentColor"/>
<rect x="5.72705" y="24.8184" width="1.90909" height="1.90909" fill="currentColor"/>
<rect x="5.72705" y="26.7266" width="1.90909" height="1.90909" fill="currentColor"/>
<rect x="5.72705" y="28.6367" width="1.90909" height="1.90909" fill="currentColor"/>
<rect x="5.72705" y="30.5449" width="1.90909" height="1.90909" fill="currentColor"/>
<rect x="5.72705" y="32.4551" width="1.90909" height="1.90909" fill="currentColor"/>
<rect x="5.72705" y="34.3633" width="1.90909" height="1.90909" fill="currentColor"/>
<rect x="5.72705" y="36.2734" width="1.90909" height="1.90909" fill="currentColor"/>
<rect x="5.72705" y="38.1816" width="1.90909" height="1.90909" fill="currentColor"/>
<rect x="7.63623" y="40.0918" width="1.90909" height="1.90909" fill="currentColor"/>
<rect x="9.54541" y="40.0918" width="1.90909" height="1.90909" fill="currentColor"/>
<rect x="11.4546" y="40.0918" width="1.90909" height="1.90909" fill="currentColor"/>
<rect x="13.3638" y="40.0898" width="1.90909" height="1.90909" fill="currentColor"/>
<rect x="15.2729" y="40.0918" width="1.90909" height="1.90909" fill="currentColor"/>
<rect x="17.1816" y="40.0918" width="1.90909" height="1.90909" fill="currentColor"/>
<rect x="19.0908" y="40.0918" width="1.90909" height="1.90909" fill="currentColor"/>
<rect x="21" y="40.0918" width="1.90909" height="1.90909" fill="currentColor"/>
<rect x="22.9092" y="40.0918" width="1.90909" height="1.90909" fill="currentColor"/>
<rect x="24.8184" y="40.0898" width="1.90909" height="1.90909" fill="currentColor"/>
<rect x="26.7271" y="40.0918" width="1.90909" height="1.90909" fill="currentColor"/>
<rect x="28.6362" y="40.0918" width="1.90909" height="1.90909" fill="currentColor"/>
<rect x="30.5454" y="40.0918" width="1.90909" height="1.90909" fill="currentColor"/>
<rect x="32.4546" y="40.0918" width="1.90909" height="1.90909" fill="currentColor"/>
<rect x="32.4546" y="38.1816" width="1.90909" height="1.90909" fill="currentColor"/>
<rect x="32.4546" y="32.4551" width="1.90909" height="1.90909" fill="currentColor"/>
<rect x="32.4546" y="34.3633" width="1.90909" height="1.90909" fill="currentColor"/>
<rect x="32.4546" y="36.2734" width="1.90909" height="1.90909" fill="currentColor"/>
<rect x="34.3638" y="34.3633" width="1.90909" height="1.90909" fill="currentColor"/>
<rect x="36.2729" y="36.2734" width="1.90909" height="1.90909" fill="currentColor"/>
<rect x="38.1816" y="38.1816" width="1.90909" height="1.90909" fill="currentColor"/>
<rect x="40.0908" y="40.0918" width="1.90909" height="1.90909" fill="currentColor"/>
<rect x="40.0908" y="19.0918" width="1.90909" height="1.90909" fill="currentColor"/>
<rect x="40.0908" y="21" width="1.90909" height="1.90909" fill="currentColor"/>
<rect x="40.0908" y="22.9082" width="1.90909" height="1.90909" fill="currentColor"/>
<rect x="40.0908" y="24.8184" width="1.90909" height="1.90909" fill="currentColor"/>
<rect x="40.0908" y="26.7266" width="1.90909" height="1.90909" fill="currentColor"/>
<rect x="40.0908" y="28.6367" width="1.90909" height="1.90909" fill="currentColor"/>
<rect x="40.0908" y="30.5449" width="1.90909" height="1.90909" fill="currentColor"/>
<rect x="40.0908" y="32.4551" width="1.90909" height="1.90909" fill="currentColor"/>
<rect x="40.0908" y="34.3633" width="1.90909" height="1.90909" fill="currentColor"/>
<rect x="40.0908" y="36.2734" width="1.90909" height="1.90909" fill="currentColor"/>
<rect x="40.0908" y="38.1816" width="1.90909" height="1.90909" fill="currentColor"/>
<rect x="38.1816" y="21" width="1.90909" height="1.90909" fill="currentColor"/>
<rect x="36.2729" y="22.9102" width="1.90909" height="1.90909" fill="currentColor"/>
<rect x="34.3638" y="24.8184" width="1.90909" height="1.90909" fill="currentColor"/>
<rect x="24.8184" y="7.63672" width="1.90909" height="1.90909" fill="currentColor"/>
<rect x="22.9092" y="5.72656" width="1.90909" height="1.90909" fill="currentColor"/>
<rect x="26.7271" y="7.63672" width="1.90909" height="1.90909" fill="currentColor"/>
<rect x="26.7271" y="9.54492" width="1.90909" height="1.90909" fill="currentColor"/>
<rect x="26.7271" y="11.4551" width="1.90909" height="1.90909" fill="currentColor"/>
<rect x="25.7729" y="12.4102" width="1.90909" height="1.90909" fill="currentColor"/>
<rect x="24.8184" y="13.3633" width="1.90909" height="1.90909" fill="currentColor"/>
<rect x="22.9092" y="13.3633" width="1.90909" height="1.90909" fill="currentColor"/>
<rect x="21" y="13.3633" width="1.90909" height="1.90909" fill="currentColor"/>
<rect x="19.0908" y="11.4551" width="1.90909" height="1.90909" fill="currentColor"/>
<rect x="19.0908" y="9.54492" width="1.90909" height="1.90909" fill="currentColor"/>
<rect x="21" y="7.63672" width="1.90909" height="1.90909" fill="currentColor"/>
<rect x="11.4546" y="9.54492" width="1.90909" height="1.90909" fill="currentColor"/>
<rect x="9.54541" y="9.54492" width="1.90909" height="1.90909" fill="currentColor"/>
<rect x="13.3638" y="11.4551" width="1.90909" height="1.90909" fill="currentColor"/>
<rect x="13.3638" y="13.3633" width="1.90909" height="1.90909" fill="currentColor"/>
<rect x="13.3638" y="15.2734" width="1.90909" height="1.90909" fill="currentColor"/>
<rect x="12.4092" y="16.2266" width="1.90909" height="1.90909" fill="currentColor"/>
<rect x="11.4546" y="17.1816" width="1.90909" height="1.90909" fill="currentColor"/>
<rect x="9.54541" y="17.1816" width="1.90909" height="1.90909" fill="currentColor"/>
<rect x="7.63623" y="17.1816" width="1.90909" height="1.90909" fill="currentColor"/>
<rect x="7.63623" y="15.2734" width="1.90909" height="1.90909" fill="currentColor"/>
<rect x="5.72705" y="13.3633" width="1.90909" height="1.90909" fill="currentColor"/>
<rect x="7.63623" y="11.4551" width="1.90909" height="1.90909" fill="currentColor"/>
</svg>
