<svg viewBox="0 0 110 132" fill="none" xmlns="http://www.w3.org/2000/svg">
<rect x="3.85645" y="1.30273" width="2.57084" height="2.60671" fill="currentColor"/>
<rect x="2.5708" y="2.60547" width="1.28542" height="3.91006" fill="currentColor"/>
<rect x="1.28564" y="3.91016" width="1.28542" height="3.91006" fill="currentColor"/>
<rect y="6.51562" width="2.57084" height="1.30335" fill="currentColor"/>
<rect width="2.57084" height="2.60671" transform="matrix(-1 0 0 1 105.822 1.30273)" fill="currentColor"/>
<rect width="1.28542" height="3.91006" transform="matrix(-1 0 0 1 107.108 2.60547)" fill="currentColor"/>
<rect width="2.02454" height="4.10556" transform="matrix(-1 0 0 1 108.65 4.10547)" fill="currentColor"/>
<rect width="2.57084" height="1.30335" transform="matrix(-1 0 0 1 110 6.51562)" fill="currentColor"/>
<rect x="3.85645" y="128.09" width="2.57084" height="2.60671" fill="currentColor"/>
<rect x="2.5708" y="125.482" width="1.28542" height="3.91006" fill="currentColor"/>
<rect width="1.28542" height="3.91006" transform="matrix(1 0 0 -1 1.28564 128.09)" fill="currentColor"/>
<rect width="2.57084" height="1.30335" transform="matrix(1 0 0 -1 0 125.482)" fill="currentColor"/>
<rect width="2.57084" height="2.60671" transform="matrix(-1 0 0 1 105.822 128.09)" fill="currentColor"/>
<rect width="1.28542" height="3.91006" transform="matrix(-1 0 0 1 107.108 125.482)" fill="currentColor"/>
<rect x="108.393" y="128.09" width="1.28542" height="3.91006" transform="rotate(180 108.393 128.09)" fill="currentColor"/>
<rect x="109.679" y="125.482" width="2.57084" height="1.30335" transform="rotate(180 109.679 125.482)" fill="currentColor"/>
<rect x="5.39893" width="98.5276" height="2.05278" fill="currentColor"/>
<rect x="5.39893" y="130.631" width="98.5276" height="1.36852" fill="currentColor"/>
<rect y="7.52734" width="2.02454" height="116.946" fill="currentColor"/>
<rect width="2.02454" height="118.315" transform="matrix(-1 0 0 1 110 7.52734)" fill="currentColor"/>
</svg>
