<svg width="62" height="58" viewBox="0 0 62 58" fill="none" xmlns="http://www.w3.org/2000/svg">
<rect x="52.8149" width="2.2963" height="2.2963" fill="currentColor"/>
<rect x="55.1113" width="2.2963" height="2.2963" fill="currentColor"/>
<rect x="57.4072" width="2.2963" height="2.2963" fill="currentColor"/>
<rect x="59.7036" width="2.2963" height="2.2963" fill="currentColor"/>
<rect x="59.7036" y="2.29688" width="2.2963" height="2.2963" fill="currentColor"/>
<rect x="59.7036" y="4.5918" width="2.2963" height="2.2963" fill="currentColor"/>
<rect x="59.7036" y="6.88867" width="2.2963" height="2.2963" fill="currentColor"/>
<rect x="57.4072" y="6.88867" width="2.2963" height="2.2963" fill="currentColor"/>
<rect x="55.1113" y="6.88867" width="2.2963" height="2.2963" fill="currentColor"/>
<rect x="52.8149" y="9.18555" width="2.2963" height="2.2963" fill="currentColor"/>
<rect x="50.5186" y="11.4824" width="2.2963" height="2.2963" fill="currentColor"/>
<rect x="48.2222" y="13.7773" width="2.2963" height="2.2963" fill="currentColor"/>
<rect x="45.9258" y="16.0742" width="2.2963" height="2.2963" fill="currentColor"/>
<rect x="43.6294" y="18.3711" width="2.2963" height="2.2963" fill="currentColor"/>
<rect x="41.333" y="20.666" width="2.2963" height="2.2963" fill="currentColor"/>
<rect x="39.0371" y="22.9629" width="2.2963" height="2.2963" fill="currentColor"/>
<rect x="34.4443" y="18.3711" width="2.2963" height="2.2963" fill="currentColor"/>
<rect x="36.7407" y="20.666" width="2.2963" height="2.2963" fill="currentColor"/>
<rect x="50.5186" y="2.29688" width="2.2963" height="2.2963" fill="currentColor"/>
<rect x="48.2222" y="4.5918" width="2.2963" height="2.2963" fill="currentColor"/>
<rect x="45.9258" y="6.88867" width="2.2963" height="2.2963" fill="currentColor"/>
<rect x="43.6294" y="9.18555" width="2.2963" height="2.2963" fill="currentColor"/>
<rect x="41.333" y="11.4824" width="2.2963" height="2.2963" fill="currentColor"/>
<rect x="39.0371" y="13.7773" width="2.2963" height="2.2963" fill="currentColor"/>
<rect x="36.7407" y="16.0742" width="2.2963" height="2.2963" fill="currentColor"/>
<rect x="29.8516" y="18.3711" width="2.2963" height="2.2963" fill="currentColor"/>
<rect x="32.1479" y="20.666" width="2.2963" height="2.2963" fill="currentColor"/>
<rect x="34.4443" y="22.9629" width="2.2963" height="2.2963" fill="currentColor"/>
<rect x="36.7407" y="25.2598" width="2.2963" height="2.2963" fill="currentColor"/>
<rect x="39.0371" y="27.5547" width="2.2963" height="2.2963" fill="currentColor"/>
<rect x="39.0371" y="29.8516" width="2.2963" height="2.2963" fill="currentColor"/>
<rect x="36.7407" y="29.8516" width="2.2963" height="2.2963" fill="currentColor"/>
<rect x="36.7407" y="32.1484" width="2.2963" height="2.2963" fill="currentColor"/>
<rect x="34.4443" y="34.4453" width="2.2963" height="2.2963" fill="currentColor"/>
<rect x="34.4443" y="36.7402" width="2.2963" height="2.2963" fill="currentColor"/>
<rect x="32.1479" y="39.0371" width="2.2963" height="2.2963" fill="currentColor"/>
<rect x="32.1479" y="41.334" width="2.2963" height="2.2963" fill="currentColor"/>
<rect x="29.8516" y="43.6289" width="2.2963" height="2.2963" fill="currentColor"/>
<rect x="29.8516" y="45.9258" width="2.2963" height="2.2963" fill="currentColor"/>
<rect x="27.5557" y="48.2227" width="2.2963" height="2.2963" fill="currentColor"/>
<rect x="27.5557" y="50.5176" width="2.2963" height="2.2963" fill="currentColor"/>
<rect x="25.2593" y="52.8145" width="2.2963" height="2.2963" fill="currentColor"/>
<rect x="25.2593" y="55.1113" width="2.2963" height="2.2963" fill="currentColor"/>
<rect x="22.9634" y="55.1113" width="2.2963" height="2.2963" fill="currentColor"/>
<rect x="20.667" y="55.1113" width="2.2963" height="2.2963" fill="currentColor"/>
<rect x="13.7778" y="43.6289" width="2.2963" height="2.2963" fill="currentColor"/>
<rect x="16.0742" y="45.9258" width="2.2963" height="2.2963" fill="currentColor"/>
<rect x="16.0742" y="48.2227" width="2.2963" height="2.2963" fill="currentColor"/>
<rect x="18.3706" y="50.5176" width="2.2963" height="2.2963" fill="currentColor"/>
<rect x="18.3706" y="52.8145" width="2.2963" height="2.2963" fill="currentColor"/>
<rect x="6.88916" y="39.0371" width="2.2963" height="2.2963" fill="currentColor"/>
<rect x="11.4814" y="41.334" width="2.2963" height="2.2963" fill="currentColor"/>
<rect x="2.29639" y="36.7402" width="2.2963" height="2.2963" fill="currentColor"/>
<rect x="4.59277" y="39.0371" width="2.2963" height="2.2963" fill="currentColor"/>
<rect x="9.18506" y="41.334" width="2.2963" height="2.2963" fill="currentColor"/>
<rect y="34.4453" width="2.2963" height="2.2963" fill="currentColor"/>
<rect x="2.29639" y="32.1484" width="2.2963" height="2.2963" fill="currentColor"/>
<rect x="22.9634" y="20.666" width="2.2963" height="2.2963" fill="currentColor"/>
<rect x="18.3706" y="22.9629" width="2.2963" height="2.2963" fill="currentColor"/>
<rect x="13.7778" y="25.2598" width="2.2963" height="2.2963" fill="currentColor"/>
<rect x="9.18506" y="27.5547" width="2.2963" height="2.2963" fill="currentColor"/>
<rect x="4.59277" y="29.8516" width="2.2963" height="2.2963" fill="currentColor"/>
<rect x="6.88916" y="29.8516" width="2.2963" height="2.2963" fill="currentColor"/>
<rect x="11.4814" y="27.5547" width="2.2963" height="2.2963" fill="currentColor"/>
<rect x="16.0742" y="25.2598" width="2.2963" height="2.2963" fill="currentColor"/>
<rect x="20.667" y="22.9629" width="2.2963" height="2.2963" fill="currentColor"/>
<rect x="25.2593" y="20.666" width="2.2963" height="2.2963" fill="currentColor"/>
<rect x="27.5557" y="18.3711" width="2.2963" height="2.2963" fill="currentColor"/>
<rect x="18.3706" y="28.3203" width="2.2963" height="2.2963" fill="currentColor"/>
<rect x="16.0742" y="30.6172" width="2.2963" height="2.2963" fill="currentColor"/>
<rect x="18.3706" y="32.9141" width="2.2963" height="2.2963" fill="currentColor"/>
<rect x="20.667" y="35.209" width="2.2963" height="2.2963" fill="currentColor"/>
<rect x="22.9634" y="37.5059" width="2.2963" height="2.2963" fill="currentColor"/>
<rect x="25.2593" y="39.8027" width="2.2963" height="2.2963" fill="currentColor"/>
<rect x="27.5557" y="37.5059" width="2.2963" height="2.2963" fill="currentColor"/>
<rect x="20.667" y="30.6172" width="2.2963" height="2.2963" fill="currentColor"/>
<rect x="22.9634" y="32.9141" width="2.2963" height="2.2963" fill="currentColor"/>
<rect x="25.2593" y="35.209" width="2.2963" height="2.2963" fill="currentColor"/>
<rect x="13.7778" y="32.9141" width="2.2963" height="2.2963" fill="currentColor"/>
<rect x="22.9634" y="42.0996" width="2.2963" height="2.2963" fill="currentColor"/>
<rect x="16.0742" y="35.209" width="2.2963" height="2.2963" fill="currentColor"/>
<rect x="18.3706" y="37.5059" width="2.2963" height="2.2963" fill="currentColor"/>
<rect x="20.667" y="39.8027" width="2.2963" height="2.2963" fill="currentColor"/>
</svg>
