<svg width="61" height="61" viewBox="0 0 61 61" fill="none" xmlns="http://www.w3.org/2000/svg">
<rect x="24.9238" y="9.26562" width="1.45658" height="1.45658" transform="rotate(45 24.9238 9.26562)" fill="currentColor"/>
<rect x="23.894" y="10.2949" width="1.45658" height="1.45658" transform="rotate(45 23.894 10.2949)" fill="currentColor"/>
<rect x="26.9834" y="9.26562" width="1.45658" height="1.45658" transform="rotate(45 26.9834 9.26562)" fill="currentColor"/>
<rect x="28.0137" y="10.2949" width="1.45658" height="1.45658" transform="rotate(45 28.0137 10.2949)" fill="currentColor"/>
<rect x="29.0435" y="11.3262" width="1.45658" height="1.45658" transform="rotate(45 29.0435 11.3262)" fill="currentColor"/>
<rect x="30.0732" y="12.3555" width="1.45658" height="1.45658" transform="rotate(45 30.0732 12.3555)" fill="currentColor"/>
<rect x="30.0732" y="14.416" width="1.45658" height="1.45658" transform="rotate(45 30.0732 14.416)" fill="currentColor"/>
<rect x="29.0435" y="15.4453" width="1.45658" height="1.45658" transform="rotate(45 29.0435 15.4453)" fill="currentColor"/>
<rect x="16.6841" y="27.8047" width="1.45658" height="1.45658" transform="rotate(45 16.6841 27.8047)" fill="currentColor"/>
<rect x="17.7139" y="26.7754" width="1.45658" height="1.45658" transform="rotate(45 17.7139 26.7754)" fill="currentColor"/>
<rect x="14.624" y="27.8047" width="1.45658" height="1.45658" transform="rotate(45 14.624 27.8047)" fill="currentColor"/>
<rect x="12.564" y="27.8047" width="1.45658" height="1.45658" transform="rotate(45 12.564 27.8047)" fill="currentColor"/>
<rect x="11.5342" y="24.7148" width="1.45658" height="1.45658" transform="rotate(45 11.5342 24.7148)" fill="currentColor"/>
<rect x="11.5342" y="26.7754" width="1.45658" height="1.45658" transform="rotate(45 11.5342 26.7754)" fill="currentColor"/>
<rect x="11.5342" y="22.6543" width="1.45658" height="1.45658" transform="rotate(45 11.5342 22.6543)" fill="currentColor"/>
<rect x="12.564" y="21.625" width="1.45658" height="1.45658" transform="rotate(45 12.564 21.625)" fill="currentColor"/>
<rect x="28.0137" y="16.4746" width="1.45658" height="1.45658" transform="rotate(45 28.0137 16.4746)" fill="currentColor"/>
<rect x="26.9834" y="17.5059" width="1.45658" height="1.45658" transform="rotate(45 26.9834 17.5059)" fill="currentColor"/>
<rect x="25.9536" y="18.5352" width="1.45658" height="1.45658" transform="rotate(45 25.9536 18.5352)" fill="currentColor"/>
<rect x="24.9238" y="19.5645" width="1.45658" height="1.45658" transform="rotate(45 24.9238 19.5645)" fill="currentColor"/>
<rect x="23.8936" y="20.5957" width="1.45658" height="1.45658" transform="rotate(45 23.8936 20.5957)" fill="currentColor"/>
<rect x="22.8638" y="21.625" width="1.45658" height="1.45658" transform="rotate(45 22.8638 21.625)" fill="currentColor"/>
<rect x="21.834" y="22.6543" width="1.45658" height="1.45658" transform="rotate(45 21.834 22.6543)" fill="currentColor"/>
<rect x="20.8037" y="23.6855" width="1.45658" height="1.45658" transform="rotate(45 20.8037 23.6855)" fill="currentColor"/>
<rect x="19.7739" y="24.7148" width="1.45658" height="1.45658" transform="rotate(45 19.7739 24.7148)" fill="currentColor"/>
<rect x="18.7437" y="25.7441" width="1.45658" height="1.45658" transform="rotate(45 18.7437 25.7441)" fill="currentColor"/>
<rect x="22.8638" y="11.3262" width="1.45658" height="1.45658" transform="rotate(45 22.8638 11.3262)" fill="currentColor"/>
<rect x="21.834" y="12.3555" width="1.45658" height="1.45658" transform="rotate(45 21.834 12.3555)" fill="currentColor"/>
<rect x="20.8042" y="13.3848" width="1.45658" height="1.45658" transform="rotate(45 20.8042 13.3848)" fill="currentColor"/>
<rect x="19.7739" y="14.416" width="1.45658" height="1.45658" transform="rotate(45 19.7739 14.416)" fill="currentColor"/>
<rect x="18.7441" y="15.4453" width="1.45658" height="1.45658" transform="rotate(45 18.7441 15.4453)" fill="currentColor"/>
<rect x="17.7139" y="16.4746" width="1.45658" height="1.45658" transform="rotate(45 17.7139 16.4746)" fill="currentColor"/>
<rect x="16.6841" y="17.5059" width="1.45658" height="1.45658" transform="rotate(45 16.6841 17.5059)" fill="currentColor"/>
<rect x="15.6543" y="18.5352" width="1.45658" height="1.45658" transform="rotate(45 15.6543 18.5352)" fill="currentColor"/>
<rect x="14.624" y="19.5645" width="1.45658" height="1.45658" transform="rotate(45 14.624 19.5645)" fill="currentColor"/>
<rect x="13.5942" y="20.5957" width="1.45658" height="1.45658" transform="rotate(45 13.5942 20.5957)" fill="currentColor"/>
<rect x="17.7139" y="6.17578" width="1.45658" height="1.45658" transform="rotate(45 17.7139 6.17578)" fill="currentColor"/>
<rect x="18.7441" y="5.14648" width="1.45658" height="1.45658" transform="rotate(45 18.7441 5.14648)" fill="currentColor"/>
<rect x="19.7739" y="6.17578" width="1.45658" height="1.45658" transform="rotate(45 19.7739 6.17578)" fill="currentColor"/>
<rect x="20.8042" y="7.20508" width="1.45658" height="1.45658" transform="rotate(45 20.8042 7.20508)" fill="currentColor"/>
<rect x="21.834" y="8.23633" width="1.45658" height="1.45658" transform="rotate(45 21.834 8.23633)" fill="currentColor"/>
<rect x="20.8037" y="9.26562" width="1.45658" height="1.45658" transform="rotate(45 20.8037 9.26562)" fill="currentColor"/>
<rect x="11.5342" y="18.5352" width="1.45658" height="1.45658" transform="rotate(45 11.5342 18.5352)" fill="currentColor"/>
<rect x="9.47461" y="18.5352" width="1.45658" height="1.45658" transform="rotate(45 9.47461 18.5352)" fill="currentColor"/>
<rect x="8.44434" y="17.5059" width="1.45658" height="1.45658" transform="rotate(45 8.44434 17.5059)" fill="currentColor"/>
<rect x="7.41406" y="16.4746" width="1.45658" height="1.45658" transform="rotate(45 7.41406 16.4746)" fill="currentColor"/>
<rect x="8.44434" y="15.4453" width="1.45658" height="1.45658" transform="rotate(45 8.44434 15.4453)" fill="currentColor"/>
<rect x="19.7734" y="10.2949" width="1.45658" height="1.45658" transform="rotate(45 19.7734 10.2949)" fill="currentColor"/>
<rect x="18.7437" y="11.3262" width="1.45658" height="1.45658" transform="rotate(45 18.7437 11.3262)" fill="currentColor"/>
<rect x="17.7139" y="12.3555" width="1.45658" height="1.45658" transform="rotate(45 17.7139 12.3555)" fill="currentColor"/>
<rect x="16.6836" y="13.3848" width="1.45658" height="1.45658" transform="rotate(45 16.6836 13.3848)" fill="currentColor"/>
<rect x="15.6538" y="14.416" width="1.45658" height="1.45658" transform="rotate(45 15.6538 14.416)" fill="currentColor"/>
<rect x="14.624" y="15.4453" width="1.45658" height="1.45658" transform="rotate(45 14.624 15.4453)" fill="currentColor"/>
<rect x="13.5938" y="16.4746" width="1.45658" height="1.45658" transform="rotate(45 13.5938 16.4746)" fill="currentColor"/>
<rect x="12.564" y="17.5059" width="1.45658" height="1.45658" transform="rotate(45 12.564 17.5059)" fill="currentColor"/>
<rect x="16.6836" y="7.20508" width="1.45658" height="1.45658" transform="rotate(45 16.6836 7.20508)" fill="currentColor"/>
<rect x="15.6538" y="8.23633" width="1.45658" height="1.45658" transform="rotate(45 15.6538 8.23633)" fill="currentColor"/>
<rect x="14.624" y="9.26562" width="1.45658" height="1.45658" transform="rotate(45 14.624 9.26562)" fill="currentColor"/>
<rect x="13.5938" y="10.2949" width="1.45658" height="1.45658" transform="rotate(45 13.5938 10.2949)" fill="currentColor"/>
<rect x="12.564" y="11.3262" width="1.45658" height="1.45658" transform="rotate(45 12.564 11.3262)" fill="currentColor"/>
<rect x="11.5342" y="12.3555" width="1.45658" height="1.45658" transform="rotate(45 11.5342 12.3555)" fill="currentColor"/>
<rect x="10.5044" y="13.3848" width="1.45658" height="1.45658" transform="rotate(45 10.5044 13.3848)" fill="currentColor"/>
<rect x="9.47412" y="14.416" width="1.45658" height="1.45658" transform="rotate(45 9.47412 14.416)" fill="currentColor"/>
<rect x="49.6426" y="38.1055" width="1.45658" height="1.45658" transform="rotate(45 49.6426 38.1055)" fill="currentColor"/>
<rect x="50.6729" y="37.0742" width="1.45658" height="1.45658" transform="rotate(45 50.6729 37.0742)" fill="currentColor"/>
<rect x="51.7026" y="38.1055" width="1.45658" height="1.45658" transform="rotate(45 51.7026 38.1055)" fill="currentColor"/>
<rect x="53.7627" y="40.1641" width="1.45658" height="1.45658" transform="rotate(45 53.7627 40.1641)" fill="currentColor"/>
<rect x="52.7329" y="39.1348" width="1.45658" height="1.45658" transform="rotate(45 52.7329 39.1348)" fill="currentColor"/>
<rect x="52.7324" y="41.1953" width="1.45658" height="1.45658" transform="rotate(45 52.7324 41.1953)" fill="currentColor"/>
<rect x="43.4629" y="50.4648" width="1.45658" height="1.45658" transform="rotate(45 43.4629 50.4648)" fill="currentColor"/>
<rect x="42.4331" y="51.4941" width="1.45658" height="1.45658" transform="rotate(45 42.4331 51.4941)" fill="currentColor"/>
<rect x="41.4033" y="50.4648" width="1.45658" height="1.45658" transform="rotate(45 41.4033 50.4648)" fill="currentColor"/>
<rect x="40.373" y="49.4336" width="1.45658" height="1.45658" transform="rotate(45 40.373 49.4336)" fill="currentColor"/>
<rect x="39.3433" y="48.4043" width="1.45658" height="1.45658" transform="rotate(45 39.3433 48.4043)" fill="currentColor"/>
<rect x="40.373" y="47.375" width="1.45658" height="1.45658" transform="rotate(45 40.373 47.375)" fill="currentColor"/>
<rect x="51.7026" y="42.2246" width="1.45658" height="1.45658" transform="rotate(45 51.7026 42.2246)" fill="currentColor"/>
<rect x="50.6729" y="43.2539" width="1.45658" height="1.45658" transform="rotate(45 50.6729 43.2539)" fill="currentColor"/>
<rect x="49.6426" y="44.2852" width="1.45658" height="1.45658" transform="rotate(45 49.6426 44.2852)" fill="currentColor"/>
<rect x="48.6128" y="45.3145" width="1.45658" height="1.45658" transform="rotate(45 48.6128 45.3145)" fill="currentColor"/>
<rect x="47.583" y="46.3438" width="1.45658" height="1.45658" transform="rotate(45 47.583 46.3438)" fill="currentColor"/>
<rect x="46.5527" y="47.375" width="1.45658" height="1.45658" transform="rotate(45 46.5527 47.375)" fill="currentColor"/>
<rect x="45.5229" y="48.4043" width="1.45658" height="1.45658" transform="rotate(45 45.5229 48.4043)" fill="currentColor"/>
<rect x="44.4932" y="49.4336" width="1.45658" height="1.45658" transform="rotate(45 44.4932 49.4336)" fill="currentColor"/>
<rect x="48.6128" y="39.1348" width="1.45658" height="1.45658" transform="rotate(45 48.6128 39.1348)" fill="currentColor"/>
<rect x="47.583" y="40.1641" width="1.45658" height="1.45658" transform="rotate(45 47.583 40.1641)" fill="currentColor"/>
<rect x="46.5527" y="41.1953" width="1.45658" height="1.45658" transform="rotate(45 46.5527 41.1953)" fill="currentColor"/>
<rect x="45.5229" y="42.2246" width="1.45658" height="1.45658" transform="rotate(45 45.5229 42.2246)" fill="currentColor"/>
<rect x="44.4932" y="43.2539" width="1.45658" height="1.45658" transform="rotate(45 44.4932 43.2539)" fill="currentColor"/>
<rect x="43.4629" y="44.2852" width="1.45658" height="1.45658" transform="rotate(45 43.4629 44.2852)" fill="currentColor"/>
<rect x="42.4331" y="45.3145" width="1.45658" height="1.45658" transform="rotate(45 42.4331 45.3145)" fill="currentColor"/>
<rect x="41.4033" y="46.3438" width="1.45658" height="1.45658" transform="rotate(45 41.4033 46.3438)" fill="currentColor"/>
<rect x="44.4927" y="28.834" width="1.45658" height="1.45658" transform="rotate(45 44.4927 28.834)" fill="currentColor"/>
<rect x="43.4629" y="29.8652" width="1.45658" height="1.45658" transform="rotate(45 43.4629 29.8652)" fill="currentColor"/>
<rect x="46.5532" y="28.8359" width="1.45658" height="1.45658" transform="rotate(45 46.5532 28.8359)" fill="currentColor"/>
<rect x="47.583" y="29.8652" width="1.45658" height="1.45658" transform="rotate(45 47.583 29.8652)" fill="currentColor"/>
<rect x="49.6426" y="31.9258" width="1.45658" height="1.45658" transform="rotate(45 49.6426 31.9258)" fill="currentColor"/>
<rect x="48.6128" y="30.8945" width="1.45658" height="1.45658" transform="rotate(45 48.6128 30.8945)" fill="currentColor"/>
<rect x="48.6128" y="32.9551" width="1.45658" height="1.45658" transform="rotate(45 48.6128 32.9551)" fill="currentColor"/>
<rect x="48.6128" y="35.0156" width="1.45658" height="1.45658" transform="rotate(45 48.6128 35.0156)" fill="currentColor"/>
<rect x="36.2534" y="47.375" width="1.45658" height="1.45658" transform="rotate(45 36.2534 47.375)" fill="currentColor"/>
<rect x="34.1934" y="47.375" width="1.45658" height="1.45658" transform="rotate(45 34.1934 47.375)" fill="currentColor"/>
<rect x="37.2832" y="46.3438" width="1.45658" height="1.45658" transform="rotate(45 37.2832 46.3438)" fill="currentColor"/>
<rect x="32.1333" y="47.375" width="1.45658" height="1.45658" transform="rotate(45 32.1333 47.375)" fill="currentColor"/>
<rect x="31.1035" y="46.3438" width="1.45658" height="1.45658" transform="rotate(45 31.1035 46.3438)" fill="currentColor"/>
<rect x="31.1035" y="44.2852" width="1.45658" height="1.45658" transform="rotate(45 31.1035 44.2852)" fill="currentColor"/>
<rect x="31.1035" y="42.2246" width="1.45658" height="1.45658" transform="rotate(45 31.1035 42.2246)" fill="currentColor"/>
<rect x="32.1333" y="41.1953" width="1.45658" height="1.45658" transform="rotate(45 32.1333 41.1953)" fill="currentColor"/>
<rect x="47.583" y="36.0449" width="1.45658" height="1.45658" transform="rotate(45 47.583 36.0449)" fill="currentColor"/>
<rect x="46.5527" y="37.0742" width="1.45658" height="1.45658" transform="rotate(45 46.5527 37.0742)" fill="currentColor"/>
<rect x="45.5229" y="38.1055" width="1.45658" height="1.45658" transform="rotate(45 45.5229 38.1055)" fill="currentColor"/>
<rect x="44.4932" y="39.1348" width="1.45658" height="1.45658" transform="rotate(45 44.4932 39.1348)" fill="currentColor"/>
<rect x="43.4629" y="40.1641" width="1.45658" height="1.45658" transform="rotate(45 43.4629 40.1641)" fill="currentColor"/>
<rect x="42.4331" y="41.1953" width="1.45658" height="1.45658" transform="rotate(45 42.4331 41.1953)" fill="currentColor"/>
<rect x="41.4033" y="42.2246" width="1.45658" height="1.45658" transform="rotate(45 41.4033 42.2246)" fill="currentColor"/>
<rect x="40.373" y="43.2539" width="1.45658" height="1.45658" transform="rotate(45 40.373 43.2539)" fill="currentColor"/>
<rect x="39.3433" y="44.2852" width="1.45658" height="1.45658" transform="rotate(45 39.3433 44.2852)" fill="currentColor"/>
<rect x="38.313" y="45.3145" width="1.45658" height="1.45658" transform="rotate(45 38.313 45.3145)" fill="currentColor"/>
<rect x="42.4331" y="30.8945" width="1.45658" height="1.45658" transform="rotate(45 42.4331 30.8945)" fill="currentColor"/>
<rect x="41.4028" y="31.9258" width="1.45658" height="1.45658" transform="rotate(45 41.4028 31.9258)" fill="currentColor"/>
<rect x="40.373" y="32.9551" width="1.45658" height="1.45658" transform="rotate(45 40.373 32.9551)" fill="currentColor"/>
<rect x="39.3428" y="33.9844" width="1.45658" height="1.45658" transform="rotate(45 39.3428 33.9844)" fill="currentColor"/>
<rect x="38.313" y="35.0156" width="1.45658" height="1.45658" transform="rotate(45 38.313 35.0156)" fill="currentColor"/>
<rect x="37.2832" y="36.0449" width="1.45658" height="1.45658" transform="rotate(45 37.2832 36.0449)" fill="currentColor"/>
<rect x="36.2534" y="37.0742" width="1.45658" height="1.45658" transform="rotate(45 36.2534 37.0742)" fill="currentColor"/>
<rect x="35.2231" y="38.1055" width="1.45658" height="1.45658" transform="rotate(45 35.2231 38.1055)" fill="currentColor"/>
<rect x="34.1934" y="39.1348" width="1.45658" height="1.45658" transform="rotate(45 34.1934 39.1348)" fill="currentColor"/>
<rect x="33.1631" y="40.1641" width="1.45658" height="1.45658" transform="rotate(45 33.1631 40.1641)" fill="currentColor"/>
<rect x="26.9834" y="21.625" width="1.45658" height="1.45658" transform="rotate(45 26.9834 21.625)" fill="currentColor"/>
<rect x="28.0137" y="22.6543" width="1.45658" height="1.45658" transform="rotate(45 28.0137 22.6543)" fill="currentColor"/>
<rect x="29.0435" y="23.6855" width="1.45658" height="1.45658" transform="rotate(45 29.0435 23.6855)" fill="currentColor"/>
<rect x="30.0737" y="24.7148" width="1.45658" height="1.45658" transform="rotate(45 30.0737 24.7148)" fill="currentColor"/>
<rect x="31.1035" y="25.7441" width="1.45658" height="1.45658" transform="rotate(45 31.1035 25.7441)" fill="currentColor"/>
<rect x="32.1338" y="26.7754" width="1.45658" height="1.45658" transform="rotate(45 32.1338 26.7754)" fill="currentColor"/>
<rect x="33.1636" y="27.8047" width="1.45658" height="1.45658" transform="rotate(45 33.1636 27.8047)" fill="currentColor"/>
<rect x="34.1929" y="28.834" width="1.45658" height="1.45658" transform="rotate(45 34.1929 28.834)" fill="currentColor"/>
<rect x="35.2236" y="29.8652" width="1.45658" height="1.45658" transform="rotate(45 35.2236 29.8652)" fill="currentColor"/>
<rect x="36.2534" y="30.8945" width="1.45658" height="1.45658" transform="rotate(45 36.2534 30.8945)" fill="currentColor"/>
<rect x="37.2832" y="31.9258" width="1.45658" height="1.45658" transform="rotate(45 37.2832 31.9258)" fill="currentColor"/>
<rect x="23.8936" y="24.7148" width="1.45658" height="1.45658" transform="rotate(45 23.8936 24.7148)" fill="currentColor"/>
<rect x="24.9238" y="25.7441" width="1.45658" height="1.45658" transform="rotate(45 24.9238 25.7441)" fill="currentColor"/>
<rect x="25.9536" y="26.7754" width="1.45658" height="1.45658" transform="rotate(45 25.9536 26.7754)" fill="currentColor"/>
<rect x="26.9839" y="27.8047" width="1.45658" height="1.45658" transform="rotate(45 26.9839 27.8047)" fill="currentColor"/>
<rect x="28.0132" y="28.834" width="1.45658" height="1.45658" transform="rotate(45 28.0132 28.834)" fill="currentColor"/>
<rect x="29.0439" y="29.8652" width="1.45658" height="1.45658" transform="rotate(45 29.0439 29.8652)" fill="currentColor"/>
<rect x="30.0737" y="30.8945" width="1.45658" height="1.45658" transform="rotate(45 30.0737 30.8945)" fill="currentColor"/>
<rect x="31.103" y="31.9238" width="1.45658" height="1.45658" transform="rotate(45 31.103 31.9238)" fill="currentColor"/>
<rect x="32.1338" y="32.9551" width="1.45658" height="1.45658" transform="rotate(45 32.1338 32.9551)" fill="currentColor"/>
<rect x="33.1636" y="33.9844" width="1.45658" height="1.45658" transform="rotate(45 33.1636 33.9844)" fill="currentColor"/>
<rect x="34.1934" y="35.0156" width="1.45658" height="1.45658" transform="rotate(45 34.1934 35.0156)" fill="currentColor"/>
<rect x="51.7026" y="48.4043" width="1.45658" height="1.45658" transform="rotate(45 51.7026 48.4043)" fill="currentColor"/>
<rect x="52.7324" y="47.375" width="1.45658" height="1.45658" transform="rotate(45 52.7324 47.375)" fill="currentColor"/>
<rect x="51.7026" y="46.3438" width="1.45658" height="1.45658" transform="rotate(45 51.7026 46.3438)" fill="currentColor"/>
<rect x="52.7329" y="49.4355" width="1.45658" height="1.45658" transform="rotate(45 52.7329 49.4355)" fill="currentColor"/>
<rect x="50.6724" y="49.4336" width="1.45658" height="1.45658" transform="rotate(45 50.6724 49.4336)" fill="currentColor"/>
<rect x="48.6128" y="49.4336" width="1.45658" height="1.45658" transform="rotate(45 48.6128 49.4336)" fill="currentColor"/>
<rect x="9.47412" y="10.2949" width="1.45658" height="1.45658" transform="rotate(45 9.47412 10.2949)" fill="currentColor"/>
<rect x="9.47412" y="8.23633" width="1.45658" height="1.45658" transform="rotate(45 9.47412 8.23633)" fill="currentColor"/>
<rect x="10.5044" y="7.20508" width="1.45658" height="1.45658" transform="rotate(45 10.5044 7.20508)" fill="currentColor"/>
<rect x="11.5342" y="6.17578" width="1.45658" height="1.45658" transform="rotate(45 11.5342 6.17578)" fill="currentColor"/>
<rect x="12.564" y="7.20508" width="1.45658" height="1.45658" transform="rotate(45 12.564 7.20508)" fill="currentColor"/>
</svg>
